<svg width="14" height="17" viewBox="0 0 14 17" fill="none" xmlns="http://www.w3.org/2000/svg">
<path d="M13 7.04196C13 11.7413 7 15.7692 7 15.7692C7 15.7692 1 11.7413 1 7.04196C1 5.43953 1.63214 3.90274 2.75736 2.76965C3.88258 1.63656 5.4087 1 7 1C8.5913 1 10.1174 1.63656 11.2426 2.76965C12.3679 3.90274 13 5.43953 13 7.04196Z" stroke="#84807B" stroke-width="1.5" stroke-linecap="round" stroke-linejoin="round"/>
<path d="M7 9.05629C8.10457 9.05629 9 8.1546 9 7.04231C9 5.93001 8.10457 5.02832 7 5.02832C5.89543 5.02832 5 5.93001 5 7.04231C5 8.1546 5.89543 9.05629 7 9.05629Z" stroke="#84807B" stroke-width="1.5" stroke-linecap="round" stroke-linejoin="round"/>
</svg>
