<svg width="24" height="19" viewBox="0 0 24 19" fill="none" xmlns="http://www.w3.org/2000/svg">
<path d="M23.2734 15.5938C22.8008 15.3413 22.4933 15.4938 22.1008 15.3063C21.6258 15.1088 21.3332 14.6812 21.1508 14.2012C21.0583 13.9562 20.9933 13.6836 20.9608 13.4161C21.4158 13.2161 21.7358 12.761 21.7358 12.2335C21.7358 11.606 21.2883 11.0834 20.6933 10.9659V7.04304L22.4284 6.293C23.4385 5.87546 23.4385 4.44283 22.4284 4.02784L13.7402 0.427538C12.3726 -0.142513 10.7999 -0.142513 9.43232 0.427538L0.756625 4.02784C-0.250959 4.44538 -0.253457 5.87546 0.756625 6.293L4.62191 7.89562V14.0811C4.62191 14.6412 4.89944 15.1737 5.36446 15.5013C9.14729 18.1665 14.0377 18.1665 17.823 15.5013C18.2881 15.1737 18.5655 14.6412 18.5655 14.0811V7.91316L20.1932 7.24312V10.9684C19.6031 11.0835 19.1531 11.606 19.1531 12.2336C19.1531 12.7461 19.4581 13.1861 19.8931 13.3962C19.8081 13.7262 19.7581 14.0612 19.7456 14.4137C19.7156 15.3863 19.9982 16.3289 20.6932 17.0815C21.0907 17.5365 21.5182 17.764 21.9733 18.0215C22.6508 18.3866 23.4834 18.119 23.836 17.459C24.196 16.7914 23.9435 15.9538 23.2734 15.5938ZM11.5474 5.40299L19.6156 6.9406L13.5476 9.43083C12.3025 9.94586 10.8724 9.94586 9.6248 9.43083L0.946564 5.83298C0.351527 5.58548 0.351527 4.7354 0.946564 4.48786L9.62231 0.887558C10.8699 0.370024 12.3025 0.370024 13.5502 0.887558L22.2384 4.48786C22.8359 4.73536 22.8359 5.58544 22.2384 5.83298L20.4707 6.59556L11.64 4.91294C11.505 4.88791 11.3749 4.97545 11.3475 5.11297C11.3224 5.24794 11.4124 5.37796 11.5474 5.40299ZM19.6531 12.2335C19.6531 11.796 20.0082 11.441 20.4457 11.441C20.8807 11.441 21.2358 11.796 21.2358 12.2335C21.2358 12.686 20.8532 13.0236 20.4457 13.0236C20.0231 13.0236 19.6531 12.6811 19.6531 12.2335ZM23.3959 17.224C23.1734 17.639 22.6484 17.819 22.2033 17.579C21.8158 17.359 21.4157 17.1465 21.0632 16.7465C20.4582 16.0914 20.2206 15.2789 20.2457 14.4313C20.2582 14.1087 20.3007 13.8137 20.3757 13.5187C20.4007 13.5187 20.4607 13.5212 20.4682 13.5212C20.5082 13.8137 20.5832 14.1112 20.6832 14.3788C20.9107 14.9788 21.2983 15.5164 21.8958 15.7614C22.3333 15.9714 22.7109 15.8588 23.0384 16.0339C23.4634 16.2639 23.6234 16.7964 23.3959 17.224Z" fill="#010F1C"/>
</svg>
