<svg width="60" height="46" viewBox="0 0 60 46" fill="none" xmlns="http://www.w3.org/2000/svg">
<path d="M59.5386 14.5701C58.7705 10.1809 56.6368 5.99899 53.5401 2.7925C52.1319 1.3416 50.7359 0.457776 49.3704 0.140666C49.3521 0.134572 49.2851 0.116291 49.2668 0.116291C46.7003 -0.432264 44.9446 1.04289 43.0487 2.7986C42.7987 2.9936 38.0865 7.76688 30.4358 10.9613C30.4297 10.9674 30.4236 10.9674 30.4175 10.9735C30.4175 10.9735 30.4116 10.9735 30.4055 10.9735L20.8834 15.5882C20.8773 15.5942 20.8712 15.6004 20.8651 15.6004C20.8651 15.6065 20.859 15.6065 20.8529 15.6065C13.6109 19.6238 6.91112 20.3797 6.6369 20.4468C4.89948 20.7211 2.93659 21.0259 1.58929 22.367C0.23589 23.7142 -0.257821 25.8416 0.126202 28.6826C0.723624 33.0961 2.68651 37.3634 5.65534 40.6858C7.1305 42.3378 9.05694 43.7948 11.2576 43.6485C13.2205 43.5265 14.7751 42.1672 16.1406 40.9723C16.5185 40.6919 21.2795 36.1443 29.3508 32.4622C29.3569 32.4622 29.3569 32.4561 29.3569 32.4561C29.4179 32.4256 31.4297 31.4563 31.4297 31.4563C31.1918 35.5408 31.3808 39.3934 32.0271 43.8009C32.0637 44.0508 32.2526 44.2519 32.4966 44.3068C32.7403 44.3617 32.9964 44.2641 33.1366 44.0569L35.2824 40.9052L38.9035 45.0139C39.0559 45.1907 39.2998 45.2638 39.5375 45.1967C39.7631 45.1236 39.9337 44.9284 39.9643 44.6908C40.4946 40.7222 40.5557 36.9487 40.5129 33.2849C44.0426 36.1744 44.9814 37.1193 50.0532 40.1248C50.2604 40.2467 50.5166 40.2345 50.7116 40.1004C50.9067 39.9603 51.0042 39.7224 50.9616 39.4908L49.9801 34.1018L53.7779 34.3701C54.0279 34.3884 54.2657 34.2481 54.3753 34.0226C54.4791 33.797 54.4364 33.5227 54.2657 33.3398C51.2115 30.1088 48.3036 27.5729 44.9631 25.2319C47.6087 24.2809 50.3155 23.5373 53.0587 23.0191L53.266 22.9825C55.8751 22.4948 58.1734 21.9401 59.228 19.4773L59.2341 19.4712C59.2523 19.4347 59.2645 19.392 59.2768 19.3554C59.7825 18.0936 59.88 16.4965 59.5386 14.5701ZM15.3419 40.0578C14.0557 41.1734 12.7268 42.3316 11.1784 42.4353C9.70312 42.5329 8.16081 41.6671 6.56366 39.8748C3.75937 36.7293 1.90019 32.6937 1.33312 28.5179C1.00394 26.0733 1.38198 24.2932 2.44874 23.2325C3.5155 22.1717 5.19808 21.9095 6.8196 21.6536C7.16706 21.5683 13.5314 20.8611 20.6882 17.0693C21.7611 23.269 24.2178 28.2007 28.0157 31.7487C20.4567 35.3456 16.2503 39.3689 15.3419 40.0578ZM28.2839 27.0671C28.162 27.183 27.9731 27.1891 27.8511 27.0671C25.5407 24.7506 24.1508 21.5501 24.0411 18.2766C24.035 18.112 24.1631 17.9718 24.3337 17.9657C24.5045 17.9474 24.6446 18.0876 24.6507 18.2583C24.7544 21.3735 26.0773 24.4277 28.284 26.6343C28.3998 26.7561 28.3998 26.9512 28.2839 27.0671ZM29.4484 28.2558C29.3386 28.3839 29.1436 28.4021 29.0155 28.2924L28.5644 27.9084C28.4364 27.7986 28.4182 27.6036 28.5279 27.4756C28.6376 27.3475 28.8327 27.3353 28.9607 27.4451L29.4117 27.8291C29.5398 27.9388 29.552 28.1277 29.4484 28.2558ZM52.7171 6.69391C53.4364 7.37664 54.0278 8.25449 54.4302 9.22375C54.7411 9.97961 55.2105 10.8515 55.3324 11.7659C55.4421 12.6132 55.1923 13.68 54.3753 14.1555C53.2475 14.8077 52.132 14.0153 51.3456 12.979C50.6385 12.0524 50.0775 11.0039 49.6753 9.86383C49.4741 9.29688 49.2547 8.54102 49.3583 7.76067C49.4802 6.82188 50.0898 6.07199 50.8458 5.93793C51.4431 5.82836 52.0769 6.0843 52.7171 6.69391ZM47.2428 5.21266C47.3647 4.28606 47.822 3.52399 48.4864 3.10949C49.3032 2.60969 50.3822 2.74375 50.9371 3.4143C51.0467 3.54239 51.0285 3.73739 50.9005 3.84719C50.7725 3.95078 50.5774 3.9325 50.4677 3.80453C50.1141 3.37785 49.3521 3.29852 48.8096 3.63379C48.3036 3.9386 47.9439 4.56039 47.8464 5.29188C47.6817 6.53547 48.2121 7.78527 48.6816 8.8825C48.7486 9.04094 48.6755 9.21778 48.523 9.28481C48.3644 9.35184 48.1877 9.27871 48.1207 9.12625C47.6451 8.01063 47.0538 6.62078 47.2428 5.21266ZM38.9156 43.1913L35.6787 39.5092C35.5507 39.3689 35.3739 39.2897 35.1848 39.308C34.9958 39.3202 34.8252 39.4177 34.7154 39.5702L33.0206 42.0575C32.5269 38.1378 32.4293 34.6081 32.6853 30.8467C34.0386 30.1884 38.1596 28.1949 39.1898 27.6889C39.202 28.4814 39.2142 29.274 39.2325 30.0786C39.324 34.291 39.4154 38.6314 38.9156 43.1913ZM53.0402 21.7818L52.8329 21.8245C47.9988 22.7328 43.2743 24.3237 38.7692 26.5367C34.8616 23.0559 32.3683 18.1362 31.3502 11.8878C38.9521 8.61414 43.6339 3.88364 43.8777 3.69473C44.2678 3.32887 44.6641 2.96313 45.0725 2.62797C44.6459 3.9141 44.8104 5.24922 45.0421 6.4075C45.9991 11.1442 48.3401 15.4479 51.7965 18.8556C52.6682 19.7091 53.7472 20.6418 55.1433 21.0747C55.2895 21.1172 55.4298 21.1478 55.576 21.1722C54.7837 21.4525 53.9058 21.6232 53.0402 21.7818Z" fill="white" fill-opacity="0.6"/>
<path d="M53.7656 13.1011C53.2778 13.3754 52.6561 12.6866 52.3148 12.2415C51.6869 11.4124 51.1809 10.4797 50.8212 9.4617C50.6688 9.01674 50.4981 8.44357 50.5652 7.91939C50.614 7.53537 50.8456 7.17572 51.0651 7.13295C51.321 7.09029 51.6869 7.3951 51.8758 7.57791C52.4732 8.14486 52.967 8.87647 53.3022 9.69326C53.607 10.431 54.0277 11.2173 54.1252 11.9245C54.1863 12.4305 54.0338 12.9426 53.7656 13.1011Z" fill="white" fill-opacity="0.6"/>
<path d="M15.1781 21.8888C13.554 22.3868 11.7737 22.3578 10.053 22.5892C7.81288 22.8911 6.19838 23.6706 5.25479 24.9065C4.29748 26.1611 4.00159 27.9569 4.44397 29.8334C4.83034 31.4755 5.67807 32.9371 6.4978 34.3504C6.58276 34.4965 6.76979 34.545 6.91452 34.4611C7.05983 34.3766 7.10975 34.1899 7.02526 34.0444C6.22756 32.6695 5.40303 31.2478 5.03694 29.6935C4.63686 27.9956 4.89291 26.3856 5.73936 25.2762C6.58112 24.1733 8.05991 23.4727 10.134 23.1934C11.8678 22.9606 13.6524 22.9945 15.3567 22.4715C15.5175 22.4221 15.608 22.2516 15.5585 22.0908C15.5098 21.9295 15.3395 21.84 15.1781 21.8888Z" fill="white" fill-opacity="0.6"/>
<path d="M7.66391 35.0056C7.5234 34.912 7.33415 34.9495 7.24122 35.0892C7.14711 35.2292 7.18461 35.4184 7.32454 35.5122L7.6918 35.7586C7.83254 35.8521 8.02169 35.8146 8.1145 35.6749C8.2086 35.535 8.1711 35.3458 8.03118 35.252L7.66391 35.0056Z" fill="white" fill-opacity="0.6"/>
<path d="M34.5677 31.1069C34.3992 31.1069 34.2629 31.2432 34.2629 31.4117L34.2635 37.4143C34.2635 37.5828 34.3998 37.7191 34.5683 37.7191C34.7368 37.7191 34.8731 37.5828 34.8731 37.4143L34.8725 31.4117C34.8725 31.2433 34.7363 31.1069 34.5677 31.1069Z" fill="white" fill-opacity="0.6"/>
<path d="M12.7968 24.0769C11.5436 24.154 10.2476 24.2338 9.03732 24.7198C7.64724 25.2767 6.65009 26.3266 6.36966 27.5276C6.03029 28.9811 6.72744 30.4226 7.47041 31.7746C7.55115 31.9202 7.73384 31.977 7.88478 31.8948C8.03185 31.8139 8.08599 31.6285 8.00502 31.4811C7.29006 30.1809 6.67271 28.9108 6.96381 27.6663C7.19841 26.6587 8.05857 25.7686 9.26408 25.2852C10.3833 24.8361 11.6293 24.7593 12.8336 24.6851C13.0021 24.6747 13.1295 24.5303 13.1193 24.3622C13.1088 24.1948 12.9694 24.0651 12.7968 24.0769Z" fill="white" fill-opacity="0.6"/>
</svg>
