<svg width="37" height="36" viewBox="0 0 37 36" fill="none" xmlns="http://www.w3.org/2000/svg">
<path d="M35.9021 14.0578C35.3245 11.4213 34.0988 9.02557 32.4176 6.98525C32.4028 6.96672 32.3954 6.94819 32.3806 6.92973C32.3769 6.92602 32.3694 6.92602 32.362 6.91861C28.3111 2.04929 21.6384 -0.757541 14.8658 0.179257C6.1455 1.3827 -0.138385 8.77004 0.00231633 17.4682C0.109732 23.9594 3.46084 32.1428 11.2888 34.9237C17.5542 37.1491 24.8044 35.8495 29.77 31.7096C34.8319 27.4883 37.2944 20.3935 35.9021 14.0578ZM34.8208 17.4423L34.8875 18.0273C34.8986 18.1273 34.8282 18.2199 34.7245 18.231C34.6245 18.2458 34.5319 18.1717 34.5209 18.068L34.4505 17.4867C34.4394 17.383 34.5135 17.2941 34.6135 17.2793C34.7098 17.2682 34.806 17.3423 34.8208 17.4423ZM31.9622 9.27361C32.0436 9.21067 32.1585 9.2255 32.2251 9.30697C33.7988 11.3399 34.358 13.8874 34.6949 16.4165C34.7061 16.5165 34.6357 16.6091 34.5357 16.6239C34.4321 16.6387 34.3395 16.5646 34.3247 16.4647C34.0025 14.0282 33.4656 11.5139 31.9289 9.53285C31.8696 9.45508 31.8844 9.33662 31.9622 9.27361ZM31.7252 9.90684C32.5769 11.3769 33.1619 12.9728 33.4581 14.6466C33.473 14.7466 33.4063 14.8429 33.3063 14.8614C33.21 14.8799 33.1101 14.8132 33.0916 14.7096C32.8027 13.0803 32.2362 11.5251 31.403 10.0957C31.3549 10.0068 31.3845 9.89209 31.4734 9.84027C31.5586 9.7883 31.6734 9.81796 31.7252 9.90684ZM19.1797 0.819899C24.0601 1.26795 28.5777 3.63037 31.6215 7.18155C30.4661 8.36646 29.5145 9.3255 28.3814 10.492C28.1999 10.6771 27.9926 10.8992 27.8371 11.1622C22.1901 8.62563 22.5752 8.7627 22.4308 8.74787C18.8056 4.02667 18.3576 3.44897 18.3095 3.39344C18.3058 3.39344 18.3058 3.39344 18.3058 3.39344C18.6687 2.46398 18.8649 1.73824 19.1797 0.819899ZM29.5404 19.116C28.4333 20.4565 27.2039 21.7044 25.8783 22.8264L19.6907 21.2193C19.5092 21.1712 19.276 21.1156 19.0316 21.1193L17.5134 14.6985C17.7393 14.5429 17.4282 14.828 22.5827 9.60327L27.6038 11.8732C27.5705 12.299 27.689 12.7175 27.7816 13.0433L29.5404 19.116ZM10.1854 6.1558C16.3211 4.30807 17.5727 3.92296 17.7356 3.87478C17.7097 3.88582 17.6653 3.90065 17.6467 3.90806C17.6616 3.90806 17.6949 3.90065 17.7504 3.88582C17.7726 3.90436 17.78 3.90806 17.7837 3.90806H17.7875C17.7986 3.95247 18.1059 4.47835 21.8865 9.25508L17.3172 13.8911C17.0172 14.1947 16.9802 14.191 16.6432 14.0911L10.4594 12.3137C10.4519 12.3026 10.4261 12.2618 10.4187 12.2544L10.1854 6.15943C10.1854 6.1558 10.1854 6.1558 10.1854 6.1558ZM16.7951 14.8762L18.328 21.36C18.1318 21.5007 17.9763 21.6784 17.854 21.8266L14.0659 26.4404C13.9919 26.533 13.903 26.6403 13.8178 26.7625C11.9552 26.0294 10.2963 25.2443 8.63372 24.4334C7.57839 21.8487 6.64893 19.179 5.86766 16.4981C7.19328 15.2354 8.61519 14.0542 10.1001 12.9803C16.8839 14.9243 16.4914 14.8391 16.7951 14.8762ZM7.23041 4.09695C7.99693 4.69311 8.7375 5.33375 9.44101 6.01131L9.68171 12.3693C8.16721 13.4616 6.71935 14.665 5.3715 15.95C3.98658 15.2168 2.53879 14.5836 1.06128 14.0652C1.8427 10.1512 4.04588 6.52608 7.23041 4.09695ZM2.52775 22.4523C2.51292 22.456 2.49446 22.4597 2.47963 22.4597C2.39816 22.4597 2.32411 22.4041 2.30187 22.3189C1.83158 20.5526 1.55018 18.7271 1.46871 16.8942C1.465 16.7905 1.54276 16.7053 1.64647 16.7016C1.75752 16.6905 1.83165 16.7757 1.83907 16.8757C1.91683 18.6827 2.19453 20.4823 2.66111 22.2264C2.68691 22.3227 2.62768 22.4264 2.52775 22.4523ZM15.7693 35.1607C14.3326 35.0163 12.9069 34.7127 11.5369 34.2275C8.27085 33.0648 6.13802 31.3319 4.59016 29.1138C5.66773 27.629 6.93411 26.2847 8.35232 25.1184C10.0112 25.9256 11.6664 26.7143 13.5364 27.4475C13.4883 27.8252 13.6179 28.1214 13.803 28.4546C14.8991 30.4542 16.4358 32.2168 16.9765 32.6242L15.7693 35.1607ZM24.7859 30.0396C21.2385 31.0727 23.7454 30.3506 17.9873 32.0169C17.7577 32.0799 17.48 32.1058 17.2467 31.8837C16.4691 31.1245 15.3064 29.6619 14.451 28.0993C14.3473 27.9067 14.2658 27.7734 14.2658 27.6178C14.2658 27.4438 14.3659 27.2439 14.6361 26.9106L18.4279 22.2968C18.8019 21.845 18.9278 21.7858 19.5055 21.9375L25.5598 23.5076C25.1562 25.6516 24.9044 27.8363 24.8118 30.0173C24.8044 30.0247 24.7933 30.0284 24.7859 30.0396ZM29.296 31.1394C28.985 31.4022 28.6592 31.6467 28.3296 31.8837C27.3706 31.369 26.4374 30.7876 25.5487 30.1507C25.6413 27.8919 25.9042 25.6257 26.3375 23.4114C27.715 22.245 28.9888 20.949 30.1367 19.5567L35.2282 20.9342C34.4728 24.8518 32.3917 28.5584 29.296 31.1394Z" fill="black"/>
<path d="M17.0514 20.8628C17.0854 20.8138 17.0937 20.7514 17.0735 20.6952C16.5524 19.2289 16.1611 17.7074 15.9105 16.1735C15.8939 16.0724 15.7933 16.0042 15.6982 16.0205C15.597 16.0369 15.5286 16.1322 15.5452 16.2331C15.794 17.7577 16.1798 19.27 16.693 20.7294C15.6678 22.1982 14.5418 23.6185 13.3444 24.9523C13.2761 25.0284 13.2826 25.1454 13.3585 25.2137C13.4346 25.282 13.5516 25.2758 13.62 25.1996C14.8484 23.8309 16.003 22.3718 17.0514 20.8628Z" fill="black"/>
<path d="M21.3529 30.0014L18.1877 30.8121C17.934 30.8777 17.8706 30.8776 17.6475 30.5897L16.4755 29.0749C16.4125 28.9937 16.2957 28.9792 16.2158 29.0416C16.1348 29.1042 16.1199 29.2204 16.1825 29.3013L17.3545 30.8164C17.6831 31.2391 17.897 31.2698 18.2799 31.1708L21.4447 30.3601C21.5438 30.3348 21.6034 30.2339 21.5782 30.1348C21.5529 30.0357 21.4534 29.9751 21.3529 30.0014Z" fill="black"/>
<path d="M13.0918 6.55835C13.1269 6.65421 13.2322 6.70428 13.3291 6.66882L17.2236 5.24967L18.907 7.73302C18.9643 7.81783 19.0795 7.83978 19.1641 7.78258C19.2487 7.7251 19.2708 7.61012 19.2137 7.52545L17.4494 4.92241C17.4013 4.85169 17.3116 4.82335 17.2328 4.85227L13.2026 6.32099C13.1063 6.35602 13.0567 6.4622 13.0918 6.55835Z" fill="black"/>
</svg>
