<svg width="33" height="34" viewBox="0 0 33 34" fill="none" xmlns="http://www.w3.org/2000/svg">
<path d="M32.804 28.7298C32.804 28.0336 32.8188 27.3596 32.8188 26.6819C32.8188 24.7784 32.0374 23.9414 28.5859 23.9414C29.4562 22.9563 29.9635 21.938 30.2857 20.8529C30.5005 20.127 30.5264 19.3456 30.6079 18.5827C30.6598 18.1088 30.6264 17.6236 30.6857 17.1496C30.8227 16.0126 31.0338 14.8795 31.1375 13.7389C31.2004 13.0278 31.1634 12.3278 30.9449 11.6021C30.6524 10.6318 30.1746 9.80598 29.4858 9.11712C28.4452 8.07651 27.1565 7.54323 25.6603 7.56175C24.7493 7.57285 22.7903 7.56915 22.1644 7.59507C22.7458 9.6208 22.631 11.0243 22.9236 12.7611C23.6383 16.9755 29.7969 15.2165 29.7969 15.2165C29.7969 15.5164 29.8117 15.7386 29.7969 15.9608C29.7043 17.0385 29.6155 18.1198 29.4932 19.1938C29.434 19.7086 29.3784 20.2381 29.2006 20.7196C28.8044 21.7861 28.2638 22.7674 27.3935 23.5562C26.3195 24.534 25.1419 25.1968 23.6383 25.0561C23.3346 25.0265 23.0421 24.9006 22.7458 24.8117C22.6606 24.7858 22.5755 24.7599 22.494 24.7302C22.2163 24.6302 21.9163 24.7932 21.8348 25.0746V25.0858C21.7497 25.3635 21.8904 25.6561 22.1607 25.7561C22.8458 26.0116 24.2271 26.3041 26.2306 25.7116C27.3231 29.3186 24.6567 29.5741 23.5754 29.5334C23.3346 29.526 23.1309 29.7111 23.1125 29.9519C23.0939 30.2 23.2828 30.4111 23.5272 30.4333C24.3272 30.4999 26.0269 30.4481 27.0527 29.0038C27.2527 28.7224 27.3268 28.5372 27.6379 28.5927C28.1527 28.6854 28.6636 28.8002 29.1933 28.9113C29.3673 28.9483 29.5006 29.1001 29.5118 29.2778C29.5191 29.4149 29.5265 29.5482 29.5265 29.6778C29.5302 30.6111 29.5488 31.548 29.5265 32.4813C29.4932 33.8218 29.6043 33.8367 30.8931 33.807C31.6152 33.7922 31.7115 33.7033 31.7152 32.9663C31.7152 32.3998 31.7411 31.011 31.7559 30.3185C31.7559 30.1185 31.9151 29.9667 32.1152 29.9408C32.4188 29.9038 32.8113 29.6704 32.8113 28.7261L32.804 28.7298Z" fill="white"/>
<path d="M24.1088 21.2382C24.4717 21.2382 24.8383 21.2234 25.2013 21.2419C25.6531 21.2678 25.8493 21.627 25.579 21.9862C25.1864 22.5047 24.7087 22.8602 23.9866 22.8899C23.2348 22.9195 22.883 22.4121 22.4831 21.9751C22.2312 21.6974 22.5164 21.2678 22.9497 21.2419C23.3348 21.2197 23.7236 21.2382 24.1088 21.2382Z" fill="white"/>
<path d="M25.8202 18.7282C26.1658 18.7282 26.446 18.2888 26.446 17.7468C26.446 17.2048 26.1658 16.7654 25.8202 16.7654C25.4745 16.7654 25.1943 17.2048 25.1943 17.7468C25.1943 18.2888 25.4745 18.7282 25.8202 18.7282Z" fill="white"/>
<path d="M22.6273 18.7282C22.973 18.7282 23.2532 18.2888 23.2532 17.7468C23.2532 17.2048 22.973 16.7654 22.6273 16.7654C22.2817 16.7654 22.0015 17.2048 22.0015 17.7468C22.0015 18.2888 22.2817 18.7282 22.6273 18.7282Z" fill="white"/>
<path d="M20.6468 23.9301C20.5024 23.5228 20.4801 23.0858 20.5801 22.6636C21.2912 19.7343 23.8316 7.32454 17.5101 1.59924C16.2991 0.503068 14.566 0.25865 12.9773 0.0438589C11.4034 -0.163526 5.44477 0.0401551 2.12661 6.46538C1.28967 8.08742 1.1008 9.82799 1.10451 11.6204C1.10451 14.6275 1.39706 20.5045 2.07107 22.4933C2.24882 23.0154 2.23031 23.582 2.02663 24.0968C1.51927 25.3633 0.545304 27.8297 0.0453629 29.2073C-0.124989 29.6814 0.252751 30.185 0.756394 30.1331C2.49325 29.9628 3.20057 29.3814 3.91901 29.1258C4.53376 28.9036 5.13369 28.637 5.76325 28.4852C6.19654 28.3815 6.69648 28.3444 7.11495 28.463C7.31493 28.5185 7.69637 29.4554 7.7593 29.548C8.38146 30.459 9.12218 31.1516 10.2406 31.4848C11.9292 31.9885 13.892 31.1293 14.7438 30.6813C15.0029 30.5442 15.1437 30.2554 15.0919 29.9702C15.0067 29.474 14.4475 29.2481 14.0327 29.5221C13.5772 29.8258 12.9365 30.1331 12.107 30.2517C10.7627 30.4442 9.47769 29.7147 8.937 28.7C8.64442 28.1519 8.59626 27.6186 8.59995 27.0409C8.59995 26.1891 8.59995 25.3374 8.59995 24.3894C13.2773 26.1225 16.1547 23.5968 16.1547 23.5968C16.1547 23.5968 14.5253 29.4443 19.1803 33.6994C19.5469 34.0364 19.9543 34.1513 20.2024 33.7105C22.8021 29.0814 20.6431 23.9301 20.6431 23.9301H20.6468ZM18.7248 18.3382C17.9434 19.7194 16.2029 22.3414 13.9475 23.0858C12.6255 23.5228 11.3515 23.8598 9.91097 23.3265C4.95223 21.9155 4.03382 15.2829 3.84865 12.5536C3.7968 11.7907 4.17453 11.0501 4.84113 10.6723C6.88535 9.51318 8.32223 10.2909 9.73318 10.502C16.1658 11.4685 17.2307 7.38358 17.2307 7.38358C17.2307 7.38358 16.8204 9.84497 17.1196 12.62C17.3459 14.7204 18.0137 15.7532 18.6544 16.7161C18.9803 17.205 19.0136 17.8271 18.7248 18.3382Z" fill="white"/>
<path d="M11.6769 18.4571C12.1695 18.4571 12.662 18.4312 13.1508 18.4646C13.7174 18.5016 13.9878 18.9645 13.6656 19.4126C13.1545 20.12 12.5287 20.6309 11.5473 20.6865C10.4992 20.7458 9.98818 20.0606 9.43642 19.4274C9.13276 19.0793 9.49196 18.5053 10.0178 18.4646C10.5696 18.4238 11.1251 18.4571 11.6769 18.4534V18.4571Z" fill="white"/>
<path d="M8.58872 14.8018C8.9937 14.8018 9.32197 14.2879 9.32197 13.6539C9.32197 13.0198 8.9937 12.5059 8.58872 12.5059C8.18374 12.5059 7.85547 13.0198 7.85547 13.6539C7.85547 14.2879 8.18374 14.8018 8.58872 14.8018Z" fill="white"/>
<path d="M14.5277 14.8018C14.9327 14.8018 15.2609 14.2879 15.2609 13.6539C15.2609 13.0198 14.9327 12.5059 14.5277 12.5059C14.1227 12.5059 13.7944 13.0198 13.7944 13.6539C13.7944 14.2879 14.1227 14.8018 14.5277 14.8018Z" fill="white"/>
</svg>
