<svg width="30" height="27" viewBox="0 0 30 27" fill="none" xmlns="http://www.w3.org/2000/svg">
<path d="M17.9614 16.3164C18.3183 16.0373 18.4284 16.2358 18.4418 16.531C18.4928 17.7118 18.635 19.1878 18.0339 20.0144C17.4327 20.8409 16.786 21.0073 15.8091 21.324C13.6032 22.0378 9.8945 21.1495 9.63417 21.7453C9.4034 22.2739 9.7469 22.7436 11.5395 22.9019C12.7203 23.0066 14.3788 23.1032 16.0802 22.5799C16.1849 22.5477 16.3593 22.588 16.421 22.6631C16.4827 22.7356 16.4908 22.9395 16.4317 23.0093C16.0453 23.4682 14.0326 26.3745 8.33802 26.4496C7.31285 26.4631 7.03377 26.3182 6.90496 25.336C6.76005 24.2437 6.74663 23.1488 7.04988 22.019C7.3451 20.9215 7.7825 19.9553 8.3702 19.0107C8.68685 18.5008 9.0653 18.2218 9.67445 18.2378C10.3158 18.2566 14.58 18.9571 17.9587 16.3191L17.9614 16.3164Z" fill="white"/>
<path d="M5.55502 25.2124C5.61406 25.6605 5.38594 25.6552 5.12564 25.5183C4.08172 24.9628 2.73723 24.3375 2.332 23.4009C1.92678 22.4644 2.10927 21.8203 2.332 20.8193C2.83652 18.557 5.48524 15.8117 5.10417 15.2831C4.76603 14.8161 4.18638 14.8724 3.13977 16.3377C2.45008 17.3038 1.52424 18.6805 1.11097 20.4141C1.08682 20.5187 0.960688 20.6503 0.866758 20.6663C0.772836 20.6825 0.593031 20.5859 0.563511 20.5C0.364925 19.9337 -1.11642 16.7241 1.70673 11.7809C2.21661 10.89 2.48229 10.7236 3.39472 11.1128C4.40911 11.5421 5.35911 12.0869 6.18029 12.9215C6.97732 13.7319 7.5865 14.6014 8.10175 15.5863C8.37813 16.1177 8.42913 16.5873 8.10715 17.1026C7.76628 17.6473 4.99682 20.9615 5.55502 25.2151V25.2124Z" fill="white"/>
<path d="M4.15437 9.79783C3.73573 9.62338 3.85649 9.42748 4.10606 9.27448C5.11241 8.6519 6.32809 7.80658 7.34249 7.92733C8.35686 8.04808 8.81849 8.52845 9.57254 9.22888C11.274 10.8042 12.3125 14.4727 12.9592 14.4082C13.5336 14.3519 13.7751 13.8205 13.0371 12.1808C12.5514 11.0994 11.8241 9.60455 10.536 8.37545C10.4581 8.30038 10.4071 8.12593 10.4421 8.03735C10.477 7.94878 10.6487 7.84145 10.7372 7.85758C11.325 7.97023 14.8459 8.3057 17.6959 13.2355C18.2084 14.1238 18.2191 14.4378 17.4248 15.0308C16.5419 15.691 15.5946 16.2385 14.4594 16.5256C13.3591 16.8047 12.3018 16.8959 11.1908 16.8449C10.5923 16.8181 10.1602 16.6249 9.87846 16.0855C9.58064 15.5166 8.10734 11.4562 4.15437 9.79783Z" fill="white"/>
<path d="M29.9921 10.6943C29.9492 9.60209 29.7211 8.49644 29.4125 7.44449C29.0421 6.18314 28.3712 5.048 27.4937 4.04702C25.7601 2.06384 23.6937 0.748868 21.0369 0.252405C19.3597 -0.0615747 17.6932 -0.155505 16.1716 0.413423C13.1579 1.54322 11.2874 3.70889 10.5548 4.69913C10.3562 4.9675 10.4394 5.35125 10.7292 5.51764C10.9734 5.65718 11.2793 5.59277 11.4511 5.37272C11.918 4.77696 12.9271 3.60691 14.3172 2.65691C14.65 2.42881 15.0713 2.37514 15.4523 2.50127C16.5848 2.87429 17.5751 3.3305 18.4392 3.85649C18.6029 3.95578 18.5975 4.1973 18.4258 4.28318C17.4543 4.76891 14.9076 6.00876 14.0435 6.12411C13.7805 6.15899 13.5605 6.38174 13.5578 6.65009C13.5524 6.98286 13.8422 7.23516 14.1642 7.19219C15.3746 7.03116 16.652 6.64476 19.3114 5.04532C19.3838 5.00238 19.4536 4.95676 19.5207 4.90846C19.6469 4.8199 19.8186 4.82527 19.9367 4.92456C20.2802 5.21439 20.5968 5.52032 20.8893 5.8343C21.0236 5.97653 21.0047 6.20729 20.8518 6.33074C19.8615 7.12776 18.8042 8.17169 17.7335 9.54306C17.5993 9.71481 17.5643 9.95901 17.6744 10.1469C17.8676 10.485 18.3185 10.5091 18.5492 10.2247C19.6173 8.91779 20.6505 7.95434 21.6113 7.24049C21.7508 7.13856 21.9494 7.17344 22.0433 7.31834C22.2821 7.68599 22.4915 8.06436 22.6793 8.44544C22.7518 8.59033 22.7115 8.76209 22.5988 8.87751C22.0835 9.40079 21.6623 10.1173 21.3402 11.0351C20.9699 12.0898 20.9243 12.9673 20.8813 13.8154C20.825 14.9344 20.7713 15.9971 19.9608 17.4946C19.832 17.7307 19.8642 18.0394 20.0735 18.2057C20.3392 18.4177 20.723 18.3346 20.8813 18.0474C21.8286 16.3165 21.893 15.0739 21.9521 13.869C21.9923 13.0612 22.0325 12.2991 22.3519 11.3893C22.5344 10.8688 22.7491 10.4313 22.996 10.0771C23.0899 9.94019 23.3046 9.97243 23.3556 10.1308C24.2304 12.8949 24.1097 15.7315 23.8359 17.677C23.75 18.2809 23.4575 18.8417 22.9906 19.2362C21.9548 20.1111 20.7713 20.6746 19.3838 20.79C19.1638 20.8088 18.9813 20.9725 18.9276 21.1872V21.2006C18.8364 21.5521 19.1182 21.8823 19.4804 21.8554C20.0547 21.8125 20.6291 21.7534 21.1979 21.681C23.2456 21.4261 24.9577 20.4439 26.4444 19.0672C28.8811 16.8129 30.1209 14.0139 29.9921 10.6916V10.6943ZM17.7093 1.25607C18.3265 1.16751 18.9196 1.15409 19.4885 1.21313C19.7783 1.24265 19.9904 1.49759 19.9796 1.78742C19.9635 2.18192 19.8884 2.6435 19.6871 3.07824C19.6173 3.22852 19.4294 3.27683 19.2899 3.18558C18.1896 2.46369 17.1135 1.9726 16.236 1.64251C16.7056 1.4654 17.1967 1.32853 17.7119 1.25339L17.7093 1.25607ZM20.5781 3.8216C20.9537 3.24731 21.1496 2.63813 21.2462 2.13093C21.2892 1.90819 21.5334 1.79011 21.7347 1.89477C22.5425 2.31878 23.2751 2.92259 23.9299 3.69547C23.9433 3.71157 23.9567 3.72767 23.9702 3.74378C24.1741 3.98798 24.0855 4.35832 23.7957 4.48982C23.3368 4.69646 22.8323 4.95944 22.2956 5.2949C22.1077 5.41298 21.8662 5.37272 21.7159 5.21171C21.3617 4.836 20.9967 4.49518 20.6264 4.1812C20.519 4.08996 20.5002 3.93699 20.5781 3.8216ZM25.3307 5.82089C25.6044 6.37101 25.8353 6.94799 26.0204 7.54911C26.0821 7.75311 25.9184 7.95704 25.7091 7.92216C25.1858 7.83629 24.6115 7.83089 24.0292 8.00264C23.8601 8.05364 23.6803 7.97316 23.5971 7.81746C23.3958 7.44449 23.1812 7.08756 22.953 6.75209C22.8537 6.60449 22.8967 6.40056 23.0523 6.31469C23.6723 5.97653 24.2438 5.74306 24.7538 5.57936C24.9765 5.5069 25.2233 5.60888 25.3307 5.8182V5.82089ZM26.2297 13.9066C25.9962 14.9425 25.5964 15.922 25.0463 16.821C25.3763 13.8288 25.0409 11.3893 24.311 9.40619C24.2438 9.22101 24.37 9.02241 24.5659 9.01709C25.0274 9.00096 25.4998 9.20489 25.9292 9.44106C26.2834 9.63696 26.5169 9.99659 26.541 10.4018C26.6081 11.5826 26.4873 12.7473 26.2271 13.9039L26.2297 13.9066Z" fill="white"/>
</svg>
