<svg width="34" height="34" viewBox="0 0 34 34" fill="none" xmlns="http://www.w3.org/2000/svg">
<path d="M13.1674 26.716C13.1674 27.0355 13.3919 27.2943 13.6718 27.2943H13.6956C13.9728 27.2943 14.1973 27.0382 14.2 26.7186C14.2053 25.1076 14.2211 21.0273 14.208 18.5607C14.2027 17.8555 14.4351 17.5755 15.053 17.594C16.2362 17.6257 16.3154 17.6019 17.4986 17.6046C18.2908 17.6046 18.3754 17.6997 18.3781 18.5896C18.3781 22.0678 18.3728 33.0174 18.3648 33.1045C19.07 33.1098 20.3535 33.0702 21.0586 33.0226V32.6265C21.0586 29.1245 21.0269 21.8037 21.0798 18.3045C21.093 17.3643 20.2875 16.3686 19.4318 16.3898C17.6993 16.4294 16.4924 16.4399 14.7599 16.3845C13.9835 16.3607 13.1595 17.2771 13.1621 18.1935C13.1727 20.7738 13.17 25.0601 13.17 26.716H13.1674Z" fill="white"/>
<path d="M23.1815 27.3156C23.4589 27.3156 23.686 27.0594 23.686 26.7399C23.6886 24.5082 23.6992 16.8864 23.6807 12.6476C23.6781 11.7893 23.9105 11.5146 24.6103 11.5437C25.7486 11.5912 25.1834 11.5542 26.3243 11.5569C27.1984 11.5569 27.2539 11.6229 27.2539 12.6344C27.2539 18.0062 27.2539 26.0321 27.2539 31.4039C27.3516 31.4012 28.6272 31.396 28.7276 31.3933C29.3562 31.3801 29.953 30.1177 30.534 30.3263C30.534 24.7988 30.534 17.9983 30.534 12.4707C30.534 11.3007 29.71 10.3552 28.6906 10.3552C27.0875 10.3552 26.0127 10.3552 24.4096 10.3552C23.4324 10.3552 22.6401 11.2691 22.6401 12.3914C22.6401 16.6989 22.6666 24.4872 22.6745 26.7425C22.6745 27.0621 22.9016 27.3182 23.1789 27.3182L23.1815 27.3156Z" fill="white"/>
<path d="M4.18567 27.3498H4.23321C4.51316 27.3498 4.73763 27.0936 4.73763 26.7714C4.73763 26.0055 4.73763 25.1974 4.735 24.4711C4.735 23.9746 4.88553 23.6524 5.36355 23.6524C6.70253 23.6524 6.91116 23.6841 8.25018 23.6841C8.82061 23.6841 8.84433 24.0934 8.84968 24.3232C8.89983 26.0267 8.87867 30.9838 8.87867 32.7823C9.58119 32.8456 10.8859 32.8932 11.583 32.8563C11.583 31.1449 11.583 26.2458 11.583 24.5979C11.583 22.9235 10.5161 22.4824 9.18509 22.4824C7.854 22.4824 6.7527 22.464 5.59596 22.464C4.43921 22.464 3.69709 23.1057 3.69181 24.3813C3.68917 25.1314 3.68917 25.9923 3.68652 26.7767C3.68652 27.0962 3.91101 27.3551 4.19096 27.3551L4.18567 27.3498Z" fill="white"/>
<path d="M26.5899 9.44154C26.3549 8.05499 25.8451 7.00125 24.926 6.14292C24.2341 5.49324 23.183 4.97824 21.8862 4.72207C23.2094 4.41572 24.2341 3.96411 25.1294 3.08731C25.9877 2.24748 26.2597 1.36275 26.64 0C27.0019 1.38651 27.3029 2.36368 28.1744 3.25633C29.0142 4.11729 30.1578 4.37083 31.2908 4.75113C28.4359 5.08389 26.9385 8.02066 26.5872 9.44154H26.5899Z" fill="white"/>
<path d="M16.3001 34.0001C4.64545 34.0001 0.319522 28.8185 0.14258 28.5992C-0.0554935 28.3537 -0.0449297 27.9707 0.16899 27.7409C0.382907 27.5138 0.715673 27.527 0.913749 27.7726C0.979769 27.8518 5.18685 31.0738 16.3001 31.0738C27.4134 31.0738 32.9383 28.1054 32.9911 28.0579C33.2209 27.8545 33.5536 27.9021 33.7306 28.1688C33.9076 28.4329 33.8679 28.8132 33.6356 29.0191C33.4057 29.2225 27.9046 34.0027 16.2975 34.0027L16.3001 34.0001Z" fill="white"/>
</svg>
