<svg width="42" height="30" viewBox="0 0 42 30" fill="none" xmlns="http://www.w3.org/2000/svg">
<path d="M40.4192 10.2148C41.0286 10.0341 41.1715 9.69793 41.1841 9.44579C41.1967 9.20197 41.0958 8.8616 40.5285 8.60946L23.9112 1.2085C22.8773 0.746307 21.8225 0.162038 20.6373 0.0318053C19.3346 -0.111111 18.0821 0.250341 16.9222 0.662205C11.0847 2.21724 7.66372 3.90242 2.00272 5.97435C0.56532 6.49972 -0.153302 7.33597 0.0274239 8.26481C0.182943 9.06753 0.956179 9.4836 1.60766 9.75675C4.28478 10.8788 7.10473 11.7194 9.80698 12.602C8.04189 15.0731 7.09205 17.8174 6.85251 21.2006C6.83991 21.3898 6.95334 21.5621 7.12986 21.6251L19.7631 26.1471H19.7715C19.8135 26.1639 19.8598 26.1723 19.9059 26.1723C19.9522 26.1723 19.9983 26.1639 20.0404 26.1471H20.0488L32.682 21.6251C32.8626 21.5621 32.9762 21.3898 32.9594 21.2006C32.7324 18.0234 32.2491 15.7456 30.4252 13.1862L37.1241 11.1941C37.0779 14.0982 37.0485 13.9259 36.9981 16.9686C35.9978 17.0905 35.1742 17.6327 34.7539 18.4689C34.5522 18.864 34.4556 19.3136 34.4556 19.7634C34.4556 20.3433 34.6152 20.9317 34.9347 21.4361C35.2372 21.9151 35.6786 22.3018 36.1786 22.5665C35.4684 24.6427 35.0818 26.5339 34.3674 28.5385C34.1446 29.1521 34.4136 29.5976 35.1197 29.6522L39.6417 29.9967C40.3561 30.0514 40.9403 29.4084 40.8016 28.694C40.3352 26.2775 39.8266 24.3526 39.1668 22.5077C39.4736 22.3311 39.7509 22.1042 39.9736 21.8268C40.7134 20.9275 40.8521 19.5826 40.3099 18.5487C39.8559 17.6788 38.9188 17.0736 37.8387 16.9601C37.8933 13.8039 37.9186 14.0519 37.9689 10.9419L40.4192 10.2148ZM24.4029 11.7908C24.5079 11.753 24.6298 11.8076 24.6676 11.9168C24.7096 12.0303 24.6508 12.1479 24.5415 12.1858L21.2845 13.3373C21.1752 13.3751 21.0575 13.3163 21.0155 13.207C20.9776 13.0977 21.0365 12.9801 21.1458 12.9381L24.4029 11.7908ZM19.2462 7.67222C19.9985 7.28136 20.9273 7.57971 21.5703 8.11349C22.1334 8.58417 22.0746 9.21457 21.4484 9.51712C20.944 9.76095 19.8388 9.76095 19.2462 9.45831C18.3721 9.00864 18.4898 8.06728 19.2462 7.67222ZM5.45736 8.60097C4.46131 8.23112 4.44862 7.5335 4.95299 7.09215C5.16312 6.90722 5.42367 6.819 5.65061 6.73498L11.9672 4.48653C12.0807 4.44872 12.1983 4.50334 12.2362 4.61264C12.274 4.72195 12.2193 4.84378 12.1101 4.88159L5.78932 7.13004C5.58759 7.20566 5.38166 7.27716 5.23042 7.40739C5.12111 7.50401 5.02449 7.67642 5.0623 7.82346C5.11691 8.00418 5.35233 8.11349 5.60439 8.20599L10.8115 10.1265C10.9208 10.1686 10.9754 10.2904 10.9375 10.3997C10.8955 10.5091 10.7736 10.5636 10.6644 10.5216L5.45736 8.60097ZM11.8748 10.9881C11.8075 11.0805 11.6773 11.1016 11.5847 11.0301L11.3284 10.841C11.2318 10.7737 11.2149 10.6393 11.2821 10.5468C11.3536 10.4544 11.4838 10.4334 11.5763 10.5049L11.8327 10.694C11.9252 10.7611 11.9462 10.8956 11.8748 10.9881ZM32.098 20.9442L19.9061 25.3066L7.71413 20.9442C7.98736 17.7754 8.92872 15.1949 10.6392 12.8793C12.005 13.3332 13.3709 13.8164 14.6947 14.367C16.3674 15.0646 18.0232 15.8673 19.8514 15.9051C21.1627 15.9303 22.352 15.5816 23.6128 15.2075L29.568 13.4382C31.3541 15.8548 31.8668 17.9897 32.098 20.9442ZM31.6315 7.41159C31.5852 7.5209 31.4633 7.56711 31.3583 7.5209L25.5712 4.9951C25.4661 4.94889 25.4199 4.82706 25.4661 4.71775C25.5124 4.61272 25.6343 4.56643 25.7435 4.61272L31.5263 7.13852C31.6315 7.18465 31.6777 7.30657 31.6315 7.41159ZM39.9779 28.8536C40.0074 29.0175 39.8771 29.1687 39.7048 29.1561L35.1828 28.8116H35.1618C35.8888 26.7648 36.2586 24.9367 36.9647 22.8564C37.4396 22.9657 37.8935 22.9572 38.3894 22.827C39.0239 24.6173 39.5199 26.4959 39.9779 28.8536Z" fill="#AB0C2F"/>
</svg>
