<svg width="26" height="26" viewBox="0 0 26 26" fill="none" xmlns="http://www.w3.org/2000/svg">
<path d="M23.0202 23.833H2.97852C2.53435 23.833 2.16602 23.4647 2.16602 23.0205C2.16602 22.5763 2.53435 22.208 2.97852 22.208H23.0202C23.4643 22.208 23.8327 22.5763 23.8327 23.0205C23.8327 23.4647 23.4643 23.833 23.0202 23.833Z" fill="#8E55EA"/>
<path opacity="0.4" d="M22.305 14.842L14.4725 22.6745C12.9341 24.2128 10.4533 24.2128 8.92581 22.6853L3.93164 17.6911L17.3216 4.30115L22.3158 9.29531C23.8433 10.8228 23.8433 13.3036 22.305 14.842Z" fill="#8E55EA"/>
<path d="M17.3239 4.30101L3.92308 17.691L2.93724 16.7052C1.40974 15.1777 1.40974 12.6968 2.94808 11.1585L10.7806 3.32601C12.3189 1.78767 14.7997 1.78767 16.3272 3.31517L17.3239 4.30101Z" fill="#8E55EA"/>
<path d="M13.9639 19.0668L12.5014 20.5293C12.198 20.8326 11.7105 20.8326 11.4072 20.5293C11.1039 20.226 11.1039 19.7385 11.4072 19.4351L12.8697 17.9726C13.173 17.6693 13.6605 17.6693 13.9639 17.9726C14.2672 18.276 14.2672 18.7635 13.9639 19.0668Z" fill="#8E55EA"/>
<path d="M18.7104 14.3217L15.7963 17.2358C15.4929 17.5392 15.0054 17.5392 14.7021 17.2358C14.3988 16.9325 14.3988 16.445 14.7021 16.1417L17.6163 13.2275C17.9196 12.9242 18.4071 12.9242 18.7104 13.2275C19.0029 13.5308 19.0029 14.0183 18.7104 14.3217Z" fill="#8E55EA"/>
</svg>
