<svg width="20" height="21" viewBox="0 0 20 21" fill="none" xmlns="http://www.w3.org/2000/svg">
<path d="M18.3451 8.39844V16.7995C18.3451 19.9499 17.2949 21 14.1445 21H5.74349C2.5931 21 1.54297 19.9499 1.54297 16.7995V8.39844H18.3451Z" fill="#0084FF"/>
<path opacity="0.4" d="M19.9525 5.24833V6.29846C19.9525 7.45361 19.3959 8.39873 17.8522 8.39873H2.10026C0.493562 8.39873 0 7.45361 0 6.29846V5.24833C0 4.09319 0.493562 3.14807 2.10026 3.14807H17.8522C19.3959 3.14807 19.9525 4.09319 19.9525 5.24833Z" fill="#0084FF"/>
<path opacity="0.4" d="M9.59983 3.14777H3.8031C3.44606 2.75922 3.45656 2.16065 3.83461 1.7826L5.32579 0.291411C5.71434 -0.0971371 6.35492 -0.0971371 6.74347 0.291411L9.59983 3.14777Z" fill="#0084FF"/>
<path opacity="0.4" d="M16.1405 3.14777H10.3438L13.2001 0.291411C13.5887 -0.0971371 14.2292 -0.0971371 14.6178 0.291411L16.109 1.7826C16.487 2.16065 16.4975 2.75922 16.1405 3.14777Z" fill="#0084FF"/>
<path opacity="0.8" d="M6.76367 8.39844V13.7961C6.76367 14.6362 7.68779 15.1298 8.39138 14.6782L9.3785 14.0271C9.73554 13.7961 10.1871 13.7961 10.5336 14.0271L11.4683 14.6572C12.1613 15.1193 13.096 14.6257 13.096 13.7856V8.39844H6.76367Z" fill="#9FD1FF"/>
</svg>
