<svg width="23" height="23" viewBox="0 0 23 23" fill="none" xmlns="http://www.w3.org/2000/svg">
<path opacity="0.3" d="M18.0763 21.275H16.9264V20.9875C16.9264 19.7225 15.8914 18.6875 14.6264 18.6875H12.0389V16.0541C11.7514 16.0886 11.4639 16.1001 11.1764 16.1001C10.8889 16.1001 10.6014 16.0886 10.314 16.0541V18.6875H7.72649C6.46151 18.6875 5.42653 19.7225 5.42653 20.9875V21.275H4.27655C3.80506 21.275 3.41406 21.666 3.41406 22.1375C3.41406 22.609 3.80506 23 4.27655 23H18.0763C18.5478 23 18.9388 22.609 18.9388 22.1375C18.9388 21.666 18.5478 21.275 18.0763 21.275Z" fill="#13A7BE"/>
<path opacity="0.3" d="M3.72594 11.0856C2.96695 10.7982 2.29996 10.3267 1.77097 9.79767C0.701489 8.61319 0 7.19871 0 5.54273C0 3.88676 1.29948 2.58728 2.95545 2.58728H3.59944C3.30045 3.19677 3.12795 3.87526 3.12795 4.59975V8.04969C3.12795 9.13068 3.33495 10.1542 3.72594 11.0856Z" fill="#13A7BE"/>
<path opacity="0.3" d="M22.3548 5.54286C22.3548 7.19883 21.6534 8.61331 20.5839 9.79779C20.0549 10.3268 19.3879 10.7983 18.6289 11.0858C19.0199 10.1543 19.2269 9.1308 19.2269 8.04982V4.59987C19.2269 3.87538 19.0544 3.19689 18.7554 2.5874H19.3994C21.0554 2.5874 22.3548 3.88688 22.3548 5.54286Z" fill="#13A7BE"/>
<path d="M14.6248 0H7.72493C5.18347 0 3.125 2.05847 3.125 4.59993V8.04987C3.125 12.5003 6.72444 16.0997 11.1749 16.0997C15.6253 16.0997 19.2248 12.5003 19.2248 8.04987V4.59993C19.2248 2.05847 17.1663 0 14.6248 0ZM14.4408 7.41738L13.7278 8.29137C13.6128 8.41787 13.5323 8.67086 13.5438 8.84336L13.6128 9.97034C13.6588 10.6603 13.1643 11.0168 12.5204 10.7638L11.4739 10.3498C11.3129 10.2923 11.0369 10.2923 10.8759 10.3498L9.8294 10.7638C9.18541 11.0168 8.69091 10.6603 8.73691 9.97034L8.80591 8.84336C8.81741 8.67086 8.73691 8.41787 8.62192 8.29137L7.90893 7.41738C7.46043 6.88839 7.65593 6.3019 8.32292 6.1294L9.4154 5.85341C9.5879 5.80741 9.7949 5.64641 9.8869 5.49691L10.4964 4.55393C10.8759 3.96744 11.4739 3.96744 11.8534 4.55393L12.4629 5.49691C12.5549 5.64641 12.7619 5.80741 12.9343 5.85341L14.0268 6.1294C14.6938 6.3019 14.8893 6.88839 14.4408 7.41738Z" fill="#13A7BE"/>
<path opacity="0.4" d="M14.4439 7.41721L13.7309 8.2912C13.6159 8.4177 13.5354 8.67069 13.5469 8.84319L13.6159 9.97018C13.6619 10.6602 13.1674 11.0167 12.5235 10.7637L11.477 10.3497C11.316 10.2922 11.04 10.2922 10.879 10.3497L9.8325 10.7637C9.18851 11.0167 8.69401 10.6602 8.74001 9.97018L8.80901 8.84319C8.82051 8.67069 8.74001 8.4177 8.62501 8.2912L7.91203 7.41721C7.46353 6.88822 7.65903 6.30173 8.32602 6.12923L9.4185 5.85324C9.591 5.80724 9.798 5.64624 9.88999 5.49674L10.4995 4.55376C10.879 3.96727 11.477 3.96727 11.8565 4.55376L12.466 5.49674C12.558 5.64624 12.7649 5.80724 12.9374 5.85324L14.0299 6.12923C14.6969 6.30173 14.8924 6.88822 14.4439 7.41721Z" fill="#13A7BE"/>
</svg>
