<svg width="22" height="20" viewBox="0 0 22 20" fill="none" xmlns="http://www.w3.org/2000/svg">
<path opacity="0.3" d="M10.7137 2.82585V20C10.5316 20 10.3388 19.9678 10.1888 19.8821L10.1459 19.8607C8.08888 18.7358 4.49977 17.5572 2.17489 17.2465L1.86419 17.2037C0.835672 17.0751 0 16.1109 0 15.0824V2.14017C0 0.865232 1.03923 -0.0990044 2.31417 0.00813302C4.56406 0.190267 7.97103 1.32592 9.87807 2.51515L10.1459 2.67586C10.3066 2.77228 10.5102 2.82585 10.7137 2.82585Z" fill="#E9652E"/>
<path d="M21.4286 2.15087V15.0824C21.4286 16.1109 20.5929 17.0751 19.5644 17.2037L19.2108 17.2465C16.8752 17.5572 13.2754 18.7465 11.2184 19.8821C11.0791 19.9678 10.9077 20 10.7148 20V2.82583C10.9184 2.82583 11.122 2.77226 11.2827 2.67584L11.4648 2.55799C13.3719 1.35805 16.7895 0.21168 19.0394 0.018833H19.1037C20.3786 -0.0883045 21.4286 0.865219 21.4286 2.15087Z" fill="#E9652E"/>
<path d="M6.16139 7.04725H3.7508C3.31153 7.04725 2.94727 6.68298 2.94727 6.24372C2.94727 5.80445 3.31153 5.44019 3.7508 5.44019H6.16139C6.60065 5.44019 6.96492 5.80445 6.96492 6.24372C6.96492 6.68298 6.60065 7.04725 6.16139 7.04725Z" fill="#E9652E"/>
<path d="M6.96492 10.2615H3.7508C3.31153 10.2615 2.94727 9.89721 2.94727 9.45795C2.94727 9.01869 3.31153 8.65442 3.7508 8.65442H6.96492C7.40418 8.65442 7.76845 9.01869 7.76845 9.45795C7.76845 9.89721 7.40418 10.2615 6.96492 10.2615Z" fill="#E9652E"/>
</svg>
