<svg width="26" height="24" viewBox="0 0 26 24" fill="none" xmlns="http://www.w3.org/2000/svg">
<path d="M0 20.2004V23.1838C1.67966 22.8932 3.31253 22.7463 4.86215 22.7463C7.48204 22.7463 9.97133 23.1674 12.2745 23.9999V21.0503C9.06213 19.5845 4.99002 19.2999 0 20.2004Z" fill="#2DA849"/>
<path opacity="0.4" d="M12.8077 10.5339C12.8218 10.5339 12.8359 10.5323 12.8501 10.5323C12.8637 10.5323 12.8762 10.5339 12.8898 10.5345C15.7763 10.5127 18.1181 8.16 18.1181 5.26806C18.1181 2.36306 15.7551 0 12.8501 0C9.94509 0 7.58203 2.36306 7.58203 5.26806C7.58203 8.15836 9.92224 10.5111 12.8077 10.5339Z" fill="#2DA849"/>
<path d="M13.4297 21.0503V23.9999C17.0948 22.6756 21.1838 22.4024 25.7042 23.1838V20.2004C20.7142 19.2999 16.6416 19.5845 13.4297 21.0503Z" fill="#2DA849"/>
<path d="M22.6147 18.6306C22.1098 17.1664 21.2746 15.8247 20.1635 14.7136C18.2205 12.7706 15.6387 11.6976 12.891 11.6873C12.8774 11.6873 12.8649 11.6894 12.8512 11.6894C12.8371 11.6894 12.823 11.6873 12.8088 11.6873C8.40044 11.7052 4.52149 14.5161 3.09375 18.6295C6.90904 18.3183 10.1546 18.7944 12.8512 20.0518C15.5489 18.7939 18.7967 18.3183 22.6147 18.6306Z" fill="#2DA849"/>
</svg>
