<svg width="21" height="22" viewBox="0 0 21 22" fill="none" xmlns="http://www.w3.org/2000/svg">
<path opacity="0.3" d="M17.3727 11.9233V17.3451C17.3727 18.7418 16.2839 20.2374 14.9752 20.6773L11.467 21.8431C10.8511 22.052 9.85036 22.052 9.2455 21.8431L5.7373 20.6773C4.4176 20.2374 3.33984 18.7418 3.33984 17.3451L3.35084 11.9233L8.21174 15.0906C9.39947 15.8714 11.357 15.8714 12.5448 15.0906L17.3727 11.9233Z" fill="#5248B5"/>
<path d="M19.1329 4.90764L12.5454 0.585617C11.3577 -0.195206 9.40011 -0.195206 8.21238 0.585617L1.59189 4.90764C-0.530629 6.28232 -0.530629 9.39462 1.59189 10.7803L3.35149 11.924L8.21238 15.0913C9.40011 15.8721 11.3577 15.8721 12.5454 15.0913L17.3733 11.924L18.88 10.9343V14.2995C18.88 14.7504 19.2539 15.1243 19.7048 15.1243C20.1557 15.1243 20.5296 14.7504 20.5296 14.2995V8.88873C20.9695 7.47005 20.5186 5.82043 19.1329 4.90764Z" fill="#5248B5"/>
</svg>
