<svg width="55" height="43" viewBox="0 0 55 43" fill="none" xmlns="http://www.w3.org/2000/svg">
<path d="M54.815 13.8035C54.1077 9.76255 52.1434 5.91238 49.2924 2.96029C47.9959 1.62451 46.7106 0.8108 45.4534 0.518849C45.4366 0.513239 45.3749 0.496408 45.3581 0.496408C42.9952 -0.00862539 41.3788 1.34949 39.6333 2.9659C39.4032 3.14543 35.0648 7.54001 28.0211 10.481C28.0155 10.4866 28.0099 10.4866 28.0043 10.4922C28.0043 10.4922 27.9988 10.4922 27.9932 10.4922L19.2265 14.7408C19.2209 14.7463 19.2153 14.752 19.2097 14.752C19.2097 14.7576 19.2041 14.7576 19.1985 14.7576C12.531 18.4562 6.36281 19.1521 6.11035 19.2139C4.51077 19.4665 2.70361 19.7471 1.4632 20.9818C0.217175 22.2221 -0.237366 24.1808 0.116189 26.7963C0.666213 30.8597 2.47337 34.7884 5.20666 37.8472C6.56478 39.3681 8.33839 40.7095 10.3645 40.5749C12.1716 40.4626 13.6029 39.211 14.86 38.111C15.208 37.8528 19.5912 33.666 27.0221 30.276C27.0278 30.276 27.0278 30.2704 27.0278 30.2704C27.084 30.2424 28.9361 29.35 28.9361 29.35C28.7171 33.1104 28.8911 36.6574 29.4861 40.7151C29.5198 40.9453 29.6937 41.1304 29.9183 41.1809C30.1428 41.2315 30.3785 41.1416 30.5076 40.9509L32.4832 38.0492L35.817 41.8319C35.9573 41.9947 36.1818 42.062 36.4007 42.0002C36.6084 41.9329 36.7655 41.7533 36.7936 41.5345C37.2818 37.8808 37.3381 34.4066 37.2987 31.0335C40.5483 33.6938 41.4126 34.5637 46.0821 37.3307C46.2729 37.4429 46.5087 37.4317 46.6882 37.3083C46.8679 37.1793 46.9576 36.9602 46.9184 36.747L46.0148 31.7856L49.5113 32.0326C49.7414 32.0494 49.9603 31.9203 50.0613 31.7127C50.1568 31.505 50.1175 31.2524 49.9603 31.084C47.1485 28.1094 44.4713 25.7746 41.3958 23.6194C43.8315 22.7439 46.3236 22.0592 48.8492 21.5821L49.04 21.5485C51.4421 21.0994 53.558 20.5888 54.5289 18.3214L54.5345 18.3158C54.5514 18.2821 54.5626 18.2428 54.5739 18.2092C55.0395 17.0474 55.1292 15.5771 54.815 13.8035ZM14.1247 37.269C12.9405 38.2961 11.7171 39.3624 10.2915 39.4579C8.93329 39.5478 7.51335 38.7507 6.04292 37.1006C3.46111 34.2046 1.74943 30.4892 1.22735 26.6446C0.924286 24.3941 1.27234 22.7552 2.25446 21.7786C3.23659 20.802 4.78567 20.5606 6.27855 20.325C6.59844 20.2464 12.4578 19.5953 19.0468 16.1044C20.0346 21.8123 22.2964 26.3527 25.793 29.6192C18.8337 32.9306 14.961 36.6348 14.1247 37.269ZM26.0399 25.309C25.9277 25.4157 25.7538 25.4213 25.6415 25.309C23.5143 23.1763 22.2347 20.2297 22.1338 17.2159C22.1281 17.0643 22.2461 16.9353 22.4032 16.9297C22.5604 16.9129 22.6894 17.0419 22.695 17.1991C22.7905 20.0671 24.0083 22.879 26.04 24.9105C26.1466 25.0226 26.1466 25.2023 26.0399 25.309ZM27.112 26.4034C27.0109 26.5213 26.8314 26.5381 26.7135 26.4371L26.2982 26.0835C26.1803 25.9824 26.1636 25.8029 26.2645 25.6851C26.3655 25.5672 26.5452 25.5559 26.663 25.657L27.0782 26.0106C27.1962 26.1116 27.2074 26.2855 27.112 26.4034ZM48.5347 6.55217C49.1969 7.18074 49.7413 7.98894 50.1118 8.8813C50.398 9.57719 50.8302 10.3799 50.9425 11.2218C51.0434 12.0018 50.8134 12.984 50.0613 13.4217C49.023 14.0223 47.996 13.2927 47.2719 12.3386C46.6209 11.4856 46.1044 10.5203 45.7342 9.4706C45.5489 8.94863 45.347 8.25273 45.4423 7.53429C45.5545 6.66999 46.1158 5.9796 46.8118 5.85617C47.3617 5.75529 47.9453 5.99093 48.5347 6.55217ZM43.4947 5.18844C43.6069 4.33535 44.0279 3.63374 44.6396 3.25214C45.3916 2.79199 46.385 2.91541 46.8958 3.53276C46.9968 3.65068 46.98 3.83021 46.8622 3.93131C46.7443 4.02668 46.5647 4.00985 46.4637 3.89203C46.1381 3.49921 45.4366 3.42616 44.9372 3.73484C44.4713 4.01546 44.1401 4.58792 44.0503 5.26137C43.8987 6.4063 44.3871 7.55695 44.8193 8.56713C44.881 8.71299 44.8137 8.8758 44.6733 8.93751C44.5273 8.99923 44.3646 8.9319 44.3029 8.79154C43.8651 7.76442 43.3207 6.48485 43.4947 5.18844ZM35.8281 40.1539L32.848 36.764C32.7302 36.6348 32.5674 36.5619 32.3933 36.5787C32.2193 36.59 32.0622 36.6797 31.9611 36.8201L30.4008 39.1101C29.9463 35.5014 29.8564 32.2517 30.0922 28.7888C31.3381 28.1826 35.1321 26.3473 36.0806 25.8814C36.0918 26.6111 36.103 27.3408 36.1199 28.0815C36.2041 31.9597 36.2883 35.9558 35.8281 40.1539ZM48.8321 20.443L48.6413 20.4823C44.1907 21.3185 39.841 22.7833 35.6934 24.8207C32.0958 21.616 29.8003 17.0867 28.863 11.334C35.8617 8.32006 40.1721 3.96486 40.3965 3.79094C40.7557 3.45411 41.1206 3.11738 41.4966 2.80882C41.1037 3.99291 41.2552 5.2221 41.4685 6.28849C42.3497 10.6494 44.5049 14.6117 47.6871 17.749C48.4896 18.5348 49.483 19.3935 50.7683 19.792C50.903 19.8312 51.0321 19.8593 51.1668 19.8818C50.4373 20.1398 49.629 20.297 48.8321 20.443Z" fill="#AB0C2F"/>
<path d="M53.7656 13.4902C53.2779 13.7646 52.6562 13.0757 52.3148 12.6307C51.6869 11.8016 51.1809 10.8689 50.8213 9.85086C50.6688 9.4059 50.4982 8.83273 50.5652 8.30856C50.6141 7.92453 50.8457 7.56488 51.0651 7.52211C51.3211 7.47945 51.6869 7.78426 51.8758 7.96707C52.4733 8.53402 52.9671 9.26563 53.3023 10.0824C53.6071 10.8201 54.0278 11.6064 54.1253 12.3137C54.1863 12.8197 54.0339 13.3318 53.7656 13.4902Z" fill="#AB0C2F"/>
<path d="M15.1781 22.2782C13.554 22.7763 11.7737 22.7472 10.053 22.9787C7.81288 23.2805 6.19838 24.0601 5.25479 25.2959C4.29748 26.5505 4.00159 28.3463 4.44397 30.2228C4.83034 31.865 5.67807 33.3266 6.4978 34.7398C6.58276 34.886 6.76979 34.9345 6.91452 34.8506C7.05983 34.7661 7.10975 34.5794 7.02526 34.4339C6.22756 33.059 5.40303 31.6373 5.03694 30.0829C4.63686 28.3851 4.89291 26.7751 5.73936 25.6657C6.58112 24.5628 8.05991 23.8621 10.134 23.5829C11.8678 23.35 13.6524 23.384 15.3567 22.861C15.5175 22.8116 15.608 22.641 15.5585 22.4803C15.5098 22.319 15.3395 22.2295 15.1781 22.2782Z" fill="#AB0C2F"/>
<path d="M7.66391 35.395C7.5234 35.3014 7.33415 35.3389 7.24122 35.4786C7.14711 35.6186 7.18461 35.8078 7.32454 35.9016L7.6918 36.148C7.83254 36.2415 8.02169 36.204 8.1145 36.0643C8.2086 35.9244 8.1711 35.7352 8.03118 35.6414L7.66391 35.395Z" fill="#AB0C2F"/>
<path d="M34.5677 31.4965C34.3992 31.4965 34.2629 31.6328 34.2629 31.8013L34.2635 37.8038C34.2635 37.9724 34.3998 38.1086 34.5683 38.1086C34.7368 38.1086 34.8731 37.9724 34.8731 37.8038L34.8725 31.8013C34.8725 31.6329 34.7363 31.4965 34.5677 31.4965Z" fill="#AB0C2F"/>
<path d="M12.7969 24.466C11.5437 24.5431 10.2477 24.6229 9.03738 25.1089C7.6473 25.6658 6.65016 26.7157 6.36973 27.9167C6.03035 29.3702 6.7275 30.8117 7.47047 32.1637C7.55121 32.3093 7.7339 32.3661 7.88484 32.2839C8.03191 32.203 8.08605 32.0176 8.00508 31.8702C7.29012 30.57 6.67277 29.2999 6.96387 28.0554C7.19848 27.0478 8.05863 26.1577 9.26414 25.6743C10.3834 25.2252 11.6293 25.1484 12.8337 25.0742C13.0022 25.0638 13.1296 24.9194 13.1194 24.7513C13.1088 24.5839 12.9695 24.4542 12.7969 24.466Z" fill="#AB0C2F"/>
</svg>
