<svg width="37" height="36" viewBox="0 0 37 36" fill="none" xmlns="http://www.w3.org/2000/svg">
<path opacity="0.4" d="M18.9537 9.73846V36H3.79793C1.70997 36 0 34.326 0 32.2741V5.56253C0 0.846614 3.52794 -1.29535 7.82986 0.810614L15.8037 4.75255C17.5317 5.59853 18.9537 7.84849 18.9537 9.73846Z" fill="white"/>
<path d="M12.5998 13.9504H6.35388C5.6159 13.9504 5.00391 13.3385 5.00391 12.6005C5.00391 11.8625 5.6159 11.2505 6.35388 11.2505H12.5998C13.3378 11.2505 13.9498 11.8625 13.9498 12.6005C13.9498 13.3385 13.3558 13.9504 12.5998 13.9504Z" fill="white"/>
<path d="M12.5998 21.1501H6.35388C5.6159 21.1501 5.00391 20.5382 5.00391 19.8002C5.00391 19.0622 5.6159 18.4502 6.35388 18.4502H12.5998C13.3378 18.4502 13.9498 19.0622 13.9498 19.8002C13.9498 20.5382 13.3558 21.1501 12.5998 21.1501Z" fill="white"/>
<path opacity="0.6" d="M36.0528 23.4901V31.5C36.0528 33.9839 34.0369 35.9999 31.5529 35.9999H18.9531V15.1562L19.7991 15.3362L27.071 16.9562L27.935 17.1542L31.6069 17.9822C32.4889 18.1622 33.2989 18.4682 34.0009 18.9182C34.0009 18.9362 34.0189 18.9362 34.0189 18.9362C34.1989 19.0622 34.3789 19.2062 34.5409 19.3682C35.3688 20.1962 35.9088 21.4021 36.0348 23.1661C36.0348 23.2741 36.0528 23.3821 36.0528 23.4901Z" fill="white"/>
<path d="M18.9531 15.1562V25.9561C19.7811 27.054 21.0771 27.756 22.5531 27.756C25.055 27.756 27.071 25.7401 27.071 23.2561V16.9742L19.7991 15.3542L18.9531 15.1562Z" fill="white"/>
<path d="M36.0351 23.1659C35.9091 21.402 35.3691 20.196 34.5412 19.368C34.3792 19.206 34.1992 19.062 34.0192 18.936C34.0192 18.936 34.0012 18.936 34.0012 18.918C33.2992 18.468 32.4892 18.162 31.6072 17.982L27.9353 17.1541L27.0713 16.9561V23.2559C27.0713 25.7219 29.0693 27.7559 31.5712 27.7559C33.9832 27.7559 35.9091 25.8659 36.0531 23.5079V23.4899C36.0531 23.3819 36.0351 23.2739 36.0351 23.1659Z" fill="white"/>
</svg>
