<svg width="50" height="50" viewBox="0 0 50 50" fill="none" xmlns="http://www.w3.org/2000/svg">
<path d="M31.1616 32.2918C32.0783 28.0678 32.5574 24.323 32.5574 22.7553C32.5574 18.3699 28.9896 14.8021 24.6094 14.8021C20.2292 14.8021 16.6615 18.3699 16.6615 22.7553C16.6615 24.323 17.1406 28.0678 18.0573 32.297C16.6978 32.8855 15.4635 33.7136 14.3906 34.7814C12.1406 37.0262 10.901 40.021 10.901 43.2033C10.901 45.349 12.651 47.099 14.7968 47.099H15.8332L16.1875 48.5209C16.4062 49.3907 17.1875 50 18.0832 50H31.1353C32.0312 50 32.8124 49.3906 33.0312 48.5209L33.3853 47.099H34.4218C36.5677 47.099 38.3177 45.349 38.3177 43.2033C38.3178 38.4116 35.5209 34.1824 31.1616 32.2918ZM20.4063 23.0261C21.5522 22.7709 22.8907 22.1771 23.4844 20.4636C24.8282 21.6146 26.5209 22.4167 28.8178 23.0053V26.2657C28.8178 28.5886 26.9272 30.474 24.6094 30.474C22.2917 30.474 20.4063 28.5886 20.4063 26.2657V23.0261ZM26.1355 31.2866V32.5314C26.1355 33.3751 25.4533 34.0575 24.6094 34.0575C24.2032 34.0575 23.8178 33.9012 23.5313 33.6095C23.2396 33.323 23.0833 32.9376 23.0833 32.5314V31.2866C23.5678 31.4324 24.0782 31.5158 24.6094 31.5158C25.1407 31.5158 25.6511 31.4324 26.1355 31.2866ZM24.6094 45.5887C23.5417 45.5887 22.6771 44.724 22.6771 43.6616C22.6771 42.5938 23.5417 41.7241 24.6094 41.7241C25.6772 41.7241 26.5469 42.5939 26.5469 43.6616C26.547 44.724 25.6772 45.5887 24.6094 45.5887ZM34.422 46.0574H33.6459L35.2241 39.7396C35.2657 39.5833 35.2813 39.4219 35.2813 39.2657C35.2813 38.2203 34.4415 37.3126 33.3282 37.3126H15.8959C14.589 37.3126 13.6966 38.5362 13.9948 39.7396L15.5729 46.0574H14.7969C13.2239 46.0574 11.9427 44.7761 11.9427 43.2033C11.9427 40.297 13.0729 37.5679 15.1302 35.521C16.2031 34.4428 17.4531 33.6251 18.8489 33.0835C19.8749 32.6773 20.9479 32.4481 22.0417 32.37V32.5315C22.0417 33.219 22.3073 33.8648 22.7917 34.3492C23.2761 34.8336 23.9219 35.0992 24.6094 35.0992C26.0261 35.0992 27.1772 33.9481 27.1772 32.5315V32.37C28.2709 32.4481 29.3439 32.6773 30.3751 33.0835C34.5679 34.7242 37.2762 38.6981 37.2762 43.2034C37.2761 44.7762 35.9948 46.0574 34.422 46.0574Z" fill="#AB0C2F"/>
<path d="M48.3907 20.9844L43.0522 15.6458V3.91667C43.0522 2.67187 42.0418 1.66147 40.797 1.66147H37.3386C36.0886 1.66147 35.0783 2.67187 35.0783 3.91667V7.67188L29.3855 1.97912C28.1094 0.703138 26.4116 0 24.6094 0C22.8072 0 21.1094 0.703138 19.8333 1.97912L0.82809 20.9844C-0.27603 22.0938 -0.27603 23.8958 0.82809 25C1.9375 26.1094 3.73437 26.1041 4.84378 25L23.849 5.99472C24.0418 5.80197 24.3177 5.69266 24.6094 5.69266C24.9011 5.69266 25.1824 5.80207 25.3698 5.99472L44.3802 25C44.9323 25.552 45.6562 25.8281 46.3854 25.8281C47.1094 25.8281 47.8386 25.552 48.3906 25C49.5001 23.8958 49.5001 22.0938 48.3907 20.9844ZM47.6564 24.2656C46.9533 24.9636 45.8179 24.9636 45.1147 24.2656L26.1094 5.25521C25.724 4.86981 25.1771 4.65099 24.6094 4.65099C24.0417 4.65099 23.4948 4.86972 23.1146 5.25521L4.10417 24.2656C3.40623 24.9636 2.26564 24.9636 1.5625 24.2656C0.86456 23.5625 0.86456 22.4219 1.5625 21.724L20.5729 2.71873C21.6511 1.6354 23.0833 1.04167 24.6094 1.04167C26.1355 1.04167 27.5677 1.6354 28.6459 2.71873L47.6563 21.724C48.3543 22.4219 48.3543 23.5625 47.6564 24.2656Z" fill="#AB0C2F"/>
</svg>
