<svg width="58" height="50" viewBox="0 0 58 50" fill="none" xmlns="http://www.w3.org/2000/svg">
<path d="M32.1482 50.0001C31.9843 50.0001 31.8249 49.9932 31.6702 49.9795C28.456 49.6977 24.0065 45.2876 18.4442 36.8726C15.6102 32.6602 14.0138 27.7378 13.8362 22.664C13.7997 21.5495 13.8545 20.4338 13.9998 19.3282C12.9127 18.2222 9.66512 14.5197 10.5835 10.6056C11.3339 7.40601 15.6198 5.93941 19.0841 5.27207C20.0519 5.09013 21.0527 5.28546 21.881 5.818C22.7094 6.35053 23.3025 7.17988 23.5388 8.13589C24.0322 10.2458 23.77 13.036 22.76 16.4309C22.7171 18.3313 23.0261 20.2233 23.6715 22.0112C25.1004 22.6811 30.7458 25.5235 34.1159 30.1058C35.4009 25.7171 39.4093 15.6522 48.9842 17.3416C54.1113 18.2445 56.163 21.3782 56.9802 23.8522C58.4546 28.3068 56.9802 33.5933 54.7666 35.9311C51.4668 39.4169 38.6528 49.9992 32.1482 50.0001ZM19.8063 6.916C19.6729 6.91592 19.5398 6.92854 19.4088 6.95369C17.453 7.33063 12.8416 8.47769 12.2514 10.9954C11.405 14.608 15.4493 18.3524 15.4904 18.3901C15.5964 18.4868 15.6764 18.6085 15.7231 18.7441C15.7698 18.8797 15.7817 19.0249 15.7577 19.1663C15.5773 20.3074 15.5076 21.4632 15.5495 22.6177C15.718 27.3708 17.2159 31.9814 19.8731 35.926C24.9103 43.5503 29.2647 48.0477 31.821 48.2722C37.2068 48.7288 50.061 38.4086 53.5236 34.7472C55.3671 32.7974 56.5725 28.0653 55.3543 24.3816C54.3931 21.475 52.0878 19.622 48.6878 19.0241C38.2296 17.1822 35.3358 32.2321 35.3076 32.3845C35.2755 32.5584 35.1904 32.7181 35.064 32.8417C34.9376 32.9653 34.7761 33.0468 34.6015 33.075C34.427 33.1031 34.248 33.0766 34.0891 32.999C33.9302 32.9214 33.7993 32.7965 33.7142 32.6415C30.5951 26.9533 22.7412 23.4676 22.6632 23.4333C22.461 23.3447 22.3008 23.1814 22.2161 22.9775C21.3789 20.8521 20.982 18.5789 21.0493 16.2956C21.05 16.2134 21.0624 16.1318 21.0861 16.0531C22.2717 12.1194 22.1681 9.78667 21.8725 8.52224C21.757 8.06221 21.4907 7.65411 21.1162 7.363C20.7418 7.07189 20.2806 6.91453 19.8063 6.916Z" fill="#161613"/>
<path d="M8.60046 18.8834C8.42269 18.8834 8.24933 18.828 8.10443 18.725C7.95953 18.622 7.85026 18.4765 7.79178 18.3086L6.36201 14.2069C6.28751 13.9928 6.30096 13.7578 6.39939 13.5536C6.49783 13.3493 6.67322 13.1924 6.88714 13.1172L11.0248 11.6609C11.1319 11.6191 11.2464 11.5993 11.3613 11.6027C11.4762 11.606 11.5893 11.6325 11.6938 11.6805C11.7983 11.7285 11.8921 11.797 11.9695 11.882C12.0469 11.967 12.1065 12.0667 12.1446 12.1752C12.1826 12.2837 12.1985 12.3988 12.1912 12.5135C12.1838 12.6283 12.1535 12.7404 12.1019 12.8432C12.0504 12.9459 11.9786 13.0373 11.891 13.1117C11.8034 13.1862 11.7017 13.2423 11.5919 13.2766L8.26123 14.4459L9.12645 16.9302L12.5617 15.7181C12.7759 15.6424 13.0114 15.655 13.2164 15.753C13.4214 15.851 13.5791 16.0264 13.6548 16.2406C13.7304 16.4549 13.7179 16.6904 13.6199 16.8954C13.5219 17.1004 13.3465 17.2581 13.1322 17.3337L8.88573 18.832C8.79425 18.8652 8.69778 18.8826 8.60046 18.8834Z" fill="#161613"/>
<path d="M22.6681 13.9826C22.4657 13.9828 22.2697 13.9113 22.115 13.7808C21.9602 13.6503 21.8567 13.4693 21.8227 13.2697C21.7887 13.0701 21.8265 12.865 21.9294 12.6907C22.0322 12.5163 22.1935 12.384 22.3846 12.3172L27.4389 10.5431L26.5736 8.05875L23.0116 9.3052C22.7972 9.38017 22.5617 9.36688 22.357 9.26823C22.1523 9.16959 21.9952 8.99369 21.9202 8.77921C21.8453 8.56473 21.8586 8.32925 21.9572 8.12458C22.0559 7.9199 22.2318 7.7628 22.4462 7.68782L26.8152 6.15782C26.9215 6.12072 27.034 6.10491 27.1463 6.11131C27.2587 6.11771 27.3687 6.14618 27.4701 6.19511C27.5714 6.24404 27.6621 6.31245 27.737 6.39646C27.8119 6.48046 27.8696 6.57839 27.9066 6.68467L29.3355 10.7872C29.41 11.0014 29.3966 11.2363 29.2981 11.4406C29.1997 11.6448 29.0243 11.8017 28.8104 11.8769L22.9482 13.9329C22.8584 13.9652 22.7636 13.982 22.6681 13.9826Z" fill="#161613"/>
<path d="M30.9223 16.281C30.4875 16.2804 30.0636 16.1448 29.7091 15.893C29.3546 15.6412 29.0871 15.2856 28.9434 14.8752L25.0619 3.71545C24.9714 3.45576 24.9329 3.18077 24.9488 2.90622C24.9647 2.63167 25.0345 2.36294 25.1543 2.11541C25.2742 1.86788 25.4416 1.6464 25.6471 1.46365C25.8526 1.2809 26.0922 1.14046 26.352 1.05038L29.0402 0.11576C29.5643 -0.0660237 30.139 -0.0326741 30.6386 0.208503C31.1381 0.449679 31.5217 0.879018 31.7053 1.40246L35.5851 12.5648C35.6759 12.8245 35.7145 13.0996 35.6987 13.3743C35.683 13.649 35.6132 13.9178 35.4933 14.1655C35.3735 14.4131 35.2059 14.6347 35.0003 14.8175C34.7947 15.0003 34.555 15.1407 34.295 15.2307L31.6076 16.1644C31.3873 16.2413 31.1556 16.2807 30.9223 16.281ZM29.723 1.70829C29.6806 1.70831 29.6386 1.71555 29.5987 1.72971L26.9105 2.66347C26.8633 2.68001 26.8197 2.70569 26.7824 2.73906C26.7451 2.77242 26.7147 2.81282 26.693 2.85793C26.6711 2.90283 26.6584 2.95164 26.6556 3.0015C26.6528 3.05136 26.66 3.10128 26.6767 3.14834L30.5599 14.3123C30.5933 14.4076 30.6631 14.4857 30.754 14.5295C30.8449 14.5733 30.9495 14.5793 31.0448 14.5462L33.733 13.6125C33.7802 13.5962 33.8238 13.5707 33.8612 13.5376C33.8985 13.5044 33.929 13.4641 33.9507 13.4192C33.9725 13.3742 33.9851 13.3253 33.9879 13.2754C33.9906 13.2255 33.9835 13.1756 33.9669 13.1284L30.087 1.96358C30.0608 1.88891 30.012 1.82424 29.9474 1.77851C29.8828 1.73278 29.8055 1.70824 29.7264 1.70829H29.723Z" fill="#161613"/>
<path d="M5.97707 24.9898C5.54181 24.9898 5.11733 24.8544 4.76246 24.6023C4.40759 24.3503 4.1399 23.9941 3.99647 23.5832L0.115794 12.4209C-0.0662858 11.8962 -0.0325847 11.3206 0.209491 10.8207C0.451566 10.3208 0.88221 9.93749 1.40678 9.75496L4.09327 8.82034C4.61755 8.63884 5.19243 8.67286 5.69165 8.91492C6.19087 9.15698 6.5736 9.58729 6.75578 10.1113L10.6365 21.2736C10.8181 21.7984 10.7841 22.3737 10.5421 22.8735C10.3001 23.3733 9.86975 23.7566 9.34546 23.9396L6.66154 24.875C6.44131 24.9509 6.21001 24.9897 5.97707 24.9898ZM4.78032 10.4172C4.73799 10.4171 4.69597 10.4244 4.6561 10.4386L1.96875 11.3723C1.87331 11.4058 1.79502 11.4756 1.75102 11.5667C1.70702 11.6577 1.70091 11.7625 1.73403 11.8581L5.6147 23.0204C5.63077 23.0679 5.65614 23.1117 5.68931 23.1493C5.72249 23.1869 5.76282 23.2175 5.80795 23.2393C5.85308 23.2612 5.90211 23.2738 5.95218 23.2765C6.00225 23.2792 6.05235 23.2719 6.09957 23.2551L8.78692 22.3213C8.88236 22.2879 8.96065 22.218 9.00465 22.127C9.04865 22.0359 9.05476 21.9311 9.02164 21.8356L5.14097 10.6733C5.11496 10.5984 5.06624 10.5335 5.00159 10.4876C4.93695 10.4417 4.8596 10.417 4.78032 10.4172Z" fill="#161613"/>
</svg>
