<svg width="35" height="36" viewBox="0 0 35 36" fill="none" xmlns="http://www.w3.org/2000/svg">
<path d="M29.0604 11.7108V15.3542C28.297 15.2501 27.4295 15.1981 26.4579 15.1807V11.7108C26.4579 6.24578 24.9139 2.60241 17.3495 2.60241C9.78518 2.60241 8.24108 6.24578 8.24108 11.7108V15.1807C7.26952 15.1981 6.40205 15.2501 5.63867 15.3542V11.7108C5.63867 6.67952 6.85313 0 17.3495 0C27.8459 0 29.0604 6.67952 29.0604 11.7108Z" fill="white"/>
<path opacity="0.4" d="M34.6988 23.8554V27.3252C34.6988 34.265 32.9639 35.9999 26.0241 35.9999H8.6747C1.73494 35.9999 0 34.265 0 27.3252V23.8554C0 18.0607 1.21446 15.892 5.63855 15.3542C6.40193 15.2501 7.2694 15.198 8.24096 15.1807H26.4578C27.4294 15.198 28.2969 15.2501 29.0602 15.3542C33.4843 15.892 34.6988 18.0607 34.6988 23.8554Z" fill="white"/>
<path d="M10.4097 27.3253C10.1842 27.3253 9.95865 27.2732 9.75046 27.1865C9.52492 27.0997 9.35145 26.9783 9.17795 26.8221C8.86566 26.4925 8.6748 26.0414 8.6748 25.5903C8.6748 25.3648 8.72683 25.1392 8.81358 24.931C8.90032 24.7228 9.02181 24.532 9.17795 24.3585C9.35145 24.2023 9.52492 24.0809 9.75046 23.9942C10.3924 23.7166 11.1558 23.8727 11.6415 24.3585C11.7977 24.532 11.9192 24.7228 12.0059 24.931C12.0927 25.1392 12.1447 25.3648 12.1447 25.5903C12.1447 26.0414 11.9538 26.4925 11.6415 26.8221C11.3119 27.1344 10.8608 27.3253 10.4097 27.3253Z" fill="white"/>
<path d="M17.3492 27.3253C16.8808 27.3253 16.447 27.1344 16.1174 26.8222C15.9613 26.6487 15.8398 26.4578 15.753 26.2496C15.6663 26.0414 15.6143 25.8159 15.6143 25.5903C15.6143 25.1219 15.8051 24.6882 16.1174 24.3585C16.7593 23.7166 17.9217 23.7166 18.581 24.3585C18.8933 24.6882 19.0841 25.1219 19.0841 25.5903C19.0841 25.8159 19.0321 26.0414 18.9454 26.2496C18.8586 26.4578 18.7371 26.6487 18.581 26.8222C18.2514 27.1344 17.8003 27.3253 17.3492 27.3253Z" fill="white"/>
<path d="M24.2891 27.3253C23.8381 27.3253 23.387 27.1344 23.0573 26.8222C22.7451 26.4925 22.5542 26.0588 22.5542 25.5903C22.5542 25.1219 22.7451 24.6882 23.0573 24.3585C23.7166 23.7166 24.879 23.7166 25.5209 24.3585C25.5903 24.4453 25.6597 24.532 25.7291 24.6361C25.7985 24.7229 25.8506 24.827 25.8853 24.9311C25.9374 25.0352 25.972 25.1393 25.9894 25.2434C26.0067 25.3648 26.0241 25.4862 26.0241 25.5903C26.0241 26.0414 25.8332 26.4925 25.5209 26.8222C25.1913 27.1344 24.7402 27.3253 24.2891 27.3253Z" fill="white"/>
</svg>
