<svg width="34" height="34" viewBox="0 0 34 34" fill="none" xmlns="http://www.w3.org/2000/svg">
<path fill-rule="evenodd" clip-rule="evenodd" d="M23.5966 32.1641C23.6476 32.4361 23.4946 32.7251 23.2396 32.8271C21.3016 33.5921 19.2106 34.0001 17.0176 34.0001C13.2776 34.0001 9.79263 32.7931 6.98763 30.7191C6.74963 30.5491 6.68163 30.2092 6.83463 29.9542C7.76963 28.2882 11.4246 22.9331 19.4996 19.9411C19.8056 19.8221 20.1456 19.9751 20.2476 20.2811C22.2876 25.7041 23.2396 30.2941 23.5966 32.1641Z" fill="#5A7B54"/>
<path fill-rule="evenodd" clip-rule="evenodd" d="M33.694 20.2131C32.912 24.3951 30.566 28.0331 27.285 30.5151C26.928 30.7871 26.418 30.5831 26.333 30.1581C25.976 28.3221 25.109 24.3611 23.443 19.6521C23.324 19.2951 23.562 18.9041 23.936 18.8531C28.169 18.3431 31.875 19.1591 33.269 19.5331C33.558 19.6351 33.745 19.9241 33.694 20.2131Z" fill="#5A7B54"/>
<path opacity="0.4" fill-rule="evenodd" clip-rule="evenodd" d="M33.3034 16.6941C31.5694 16.3881 27.1494 15.7421 22.6274 16.2351C22.3554 16.2691 22.1174 16.1161 21.9984 15.8611C21.9304 15.7081 21.8794 15.5551 21.8114 15.4021C21.5394 14.7731 21.2504 14.1271 20.9614 13.4981C20.8084 13.1921 20.9614 12.8181 21.2674 12.6821C26.0274 10.6251 28.6794 7.97307 29.7164 6.78307C29.9714 6.49407 30.4134 6.51107 30.6514 6.81707C32.6064 9.41807 33.8134 12.5971 34.0004 16.0311C34.0174 16.4561 33.6774 16.7621 33.3034 16.6941Z" fill="#5A7B54"/>
<path fill-rule="evenodd" clip-rule="evenodd" d="M27.9481 4.743C27.0641 5.814 24.5821 8.364 19.8731 10.234C19.6011 10.353 19.2781 10.234 19.1251 9.962C16.9491 6.018 14.6371 2.703 13.5661 1.207C13.3111 0.833 13.5151 0.34 13.9571 0.255C14.9431 0.0850002 15.9631 0 17.0171 0C21.1311 0 24.9221 1.462 27.8631 3.91C28.1181 4.114 28.1521 4.488 27.9481 4.743Z" fill="#5A7B54"/>
<path fill-rule="evenodd" clip-rule="evenodd" d="M15.3336 11.6281C8.8906 13.2431 3.1956 13.4641 1.1216 13.4981C0.730599 13.4981 0.441598 13.1241 0.543598 12.7501C1.7676 7.99006 5.0316 4.01206 9.3326 1.81906C9.5876 1.68306 9.9106 1.76806 10.0806 2.00606C10.9646 3.23006 13.3616 6.68106 15.7076 10.7441C15.8946 11.0841 15.7246 11.5261 15.3336 11.6281Z" fill="#5A7B54"/>
<path opacity="0.4" fill-rule="evenodd" clip-rule="evenodd" d="M18.564 16.32C18.717 16.643 18.53 17.034 18.19 17.153C10.659 19.584 6.154 25.619 4.794 27.693C4.573 28.033 4.097 28.05 3.842 27.744C1.445 24.82 0 21.471 0 17.391V17.085C0 16.745 0.272 16.473 0.612 16.49C2.754 16.575 9.741 16.286 17 14.195C17.272 14.11 17.578 14.246 17.697 14.501C18.003 15.113 18.292 15.708 18.564 16.32Z" fill="#5A7B54"/>
</svg>
