<svg width="41" height="50" viewBox="0 0 41 50" fill="none" xmlns="http://www.w3.org/2000/svg">
<path d="M4.75143 50C3.49168 49.9986 2.2839 49.4976 1.39312 48.6068C0.502344 47.7161 0.00132357 46.5083 0 45.2485V29.8085C0 29.6191 0.0752543 29.4374 0.209209 29.3034C0.343163 29.1695 0.524845 29.0942 0.714286 29.0942H8.78572C8.97515 29.0942 9.15684 29.1695 9.29079 29.3034C9.42474 29.4374 9.5 29.6191 9.5 29.8085V45.2485C9.49868 46.5078 8.99805 47.7151 8.10789 48.6058C7.21773 49.4965 6.01068 49.9979 4.75143 50ZM1.42857 30.5228V45.2485C1.41554 45.6929 1.4918 46.1354 1.65286 46.5497C1.81391 46.9641 2.05648 47.3419 2.36619 47.6609C2.6759 47.9798 3.04646 48.2333 3.45593 48.4065C3.86539 48.5796 4.30544 48.6688 4.75 48.6688C5.19456 48.6688 5.63461 48.5796 6.04407 48.4065C6.45354 48.2333 6.8241 47.9798 7.13381 47.6609C7.44352 47.3419 7.68609 46.9641 7.84714 46.5497C8.00819 46.1354 8.08446 45.6929 8.07143 45.2485V30.5228H1.42857Z" fill="#161613"/>
<path d="M35.9011 50C34.6415 49.9984 33.4339 49.4973 32.5433 48.6066C31.6526 47.7158 31.1517 46.5082 31.1504 45.2485V29.8085C31.1504 29.6191 31.2256 29.4374 31.3596 29.3034C31.4936 29.1695 31.6752 29.0942 31.8647 29.0942H39.9361C40.1255 29.0942 40.3072 29.1695 40.4412 29.3034C40.5751 29.4374 40.6504 29.6191 40.6504 29.8085V45.2485C40.6491 46.5079 40.1483 47.7154 39.258 48.6061C38.3677 49.4968 37.1605 49.9981 35.9011 50ZM32.579 30.5228V45.2485C32.5659 45.6929 32.6422 46.1354 32.8032 46.5497C32.9643 46.9641 33.2069 47.3419 33.5166 47.6609C33.8263 47.9798 34.1969 48.2333 34.6063 48.4065C35.0158 48.5796 35.4558 48.6688 35.9004 48.6688C36.345 48.6688 36.785 48.5796 37.1945 48.4065C37.6039 48.2333 37.9745 47.9798 38.2842 47.6609C38.5939 47.3419 38.8365 46.9641 38.9975 46.5497C39.1586 46.1354 39.2349 45.6929 39.2218 45.2485V30.5228H32.579Z" fill="#161613"/>
<path d="M8.78786 34.2529H0.714286C0.524845 34.2529 0.343163 34.1777 0.209209 34.0437C0.0752543 33.9097 0 33.7281 0 33.5386C0 33.3492 0.0752543 33.1675 0.209209 33.0335C0.343163 32.8996 0.524845 32.8243 0.714286 32.8243H8.78572C8.97515 32.8243 9.15684 32.8996 9.29079 33.0335C9.42474 33.1675 9.5 33.3492 9.5 33.5386C9.5 33.7281 9.42474 33.9097 9.29079 34.0437C9.15684 34.1777 8.97515 34.2529 8.78572 34.2529H8.78786Z" fill="#161613"/>
<path d="M39.9381 34.2529H31.8666C31.6772 34.2529 31.4955 34.1777 31.3616 34.0437C31.2276 33.9097 31.1523 33.7281 31.1523 33.5386C31.1523 33.3492 31.2276 33.1675 31.3616 33.0335C31.4955 32.8996 31.6772 32.8243 31.8666 32.8243H39.9381C40.1275 32.8243 40.3092 32.8996 40.4431 33.0335C40.5771 33.1675 40.6523 33.3492 40.6523 33.5386C40.6523 33.7281 40.5771 33.9097 40.4431 34.0437C40.3092 34.1777 40.1275 34.2529 39.9381 34.2529Z" fill="#161613"/>
<path d="M35.9007 30.5229C35.7112 30.5229 35.5296 30.4476 35.3956 30.3136C35.2617 30.1797 35.1864 29.998 35.1864 29.8086V14.8214C35.1864 14.2395 34.9552 13.6813 34.5437 13.2698C34.1322 12.8583 33.5741 12.6271 32.9921 12.6271C32.4102 12.6271 31.852 12.8583 31.4405 13.2698C31.029 13.6813 30.7978 14.2395 30.7978 14.8214V21.8321C30.8049 22.3575 30.7075 22.8791 30.5113 23.3666C30.3151 23.854 30.024 24.2976 29.655 24.6717C29.2859 25.0457 28.8463 25.3427 28.3615 25.5454C27.8767 25.7481 27.3565 25.8525 26.831 25.8525C26.3056 25.8525 25.7854 25.7481 25.3006 25.5454C24.8158 25.3427 24.3761 25.0457 24.0071 24.6717C23.638 24.2976 23.347 23.854 23.1508 23.3666C22.9546 22.8791 22.8572 22.3575 22.8643 21.8321V4.255C22.8643 3.50539 22.5665 2.78647 22.0364 2.25641C21.5064 1.72636 20.7874 1.42857 20.0378 1.42857C19.2882 1.42857 18.5693 1.72636 18.0392 2.25641C17.5092 2.78647 17.2114 3.50539 17.2114 4.255V23.6057C17.2114 24.5813 16.8238 25.517 16.134 26.2069C15.4441 26.8967 14.5084 27.2843 13.5328 27.2843C12.5572 27.2843 11.6215 26.8967 10.9317 26.2069C10.2418 25.517 9.85425 24.5813 9.85425 23.6057V14.82C9.85425 14.238 9.62307 13.6799 9.21156 13.2684C8.80005 12.8569 8.24193 12.6257 7.65997 12.6257C7.07801 12.6257 6.51988 12.8569 6.10837 13.2684C5.69686 13.6799 5.46568 14.238 5.46568 14.82V29.8086C5.46568 29.998 5.39043 30.1797 5.25647 30.3136C5.12252 30.4476 4.94084 30.5229 4.7514 30.5229C4.56195 30.5229 4.38027 30.4476 4.24632 30.3136C4.11236 30.1797 4.03711 29.998 4.03711 29.8086V14.8214C4.03711 13.8606 4.4188 12.9391 5.09822 12.2597C5.77764 11.5803 6.69913 11.1986 7.65997 11.1986C8.62081 11.1986 9.5423 11.5803 10.2217 12.2597C10.9011 12.9391 11.2828 13.8606 11.2828 14.8214V23.6071C11.2828 24.2039 11.5199 24.7762 11.9418 25.1981C12.3638 25.6201 12.9361 25.8571 13.5328 25.8571C14.1296 25.8571 14.7019 25.6201 15.1238 25.1981C15.5458 24.7762 15.7828 24.2039 15.7828 23.6071V4.255C15.7828 3.69623 15.8929 3.14292 16.1067 2.62668C16.3206 2.11044 16.634 1.64137 17.0291 1.24626C17.4242 0.851147 17.8933 0.537726 18.4095 0.323893C18.9257 0.110059 19.4791 0 20.0378 0C20.5966 0 21.1499 0.110059 21.6661 0.323893C22.1824 0.537726 22.6515 0.851147 23.0466 1.24626C23.4417 1.64137 23.7551 2.11044 23.9689 2.62668C24.1828 3.14292 24.2928 3.69623 24.2928 4.255V21.8321C24.2872 22.1691 24.3487 22.5037 24.4737 22.8166C24.5987 23.1295 24.7848 23.4144 25.021 23.6546C25.2573 23.8949 25.539 24.0857 25.8497 24.216C26.1605 24.3462 26.4941 24.4133 26.831 24.4133C27.168 24.4133 27.5016 24.3462 27.8123 24.216C28.1231 24.0857 28.4048 23.8949 28.6411 23.6546C28.8773 23.4144 29.0634 23.1295 29.1884 22.8166C29.3134 22.5037 29.3749 22.1691 29.3693 21.8321V14.8214C29.3693 13.8606 29.7509 12.9391 30.4304 12.2597C31.1098 11.5803 32.0313 11.1986 32.9921 11.1986C33.953 11.1986 34.8744 11.5803 35.5539 12.2597C36.2333 12.9391 36.615 13.8606 36.615 14.8214V29.8086C36.615 29.998 36.5397 30.1797 36.4058 30.3136C36.2718 30.4476 36.0901 30.5229 35.9007 30.5229Z" fill="#161613"/>
</svg>
