<svg width="60" height="46" viewBox="0 0 60 46" fill="none" xmlns="http://www.w3.org/2000/svg">
<path d="M58.1835 38.9845C57.0021 38.3533 56.2333 38.7346 55.2521 38.2657C54.0644 37.7719 53.3331 36.703 52.8769 35.5029C52.6457 34.8904 52.4831 34.2091 52.4019 33.5402C53.5395 33.0402 54.3396 31.9026 54.3396 30.5837C54.3396 29.0149 53.2208 27.7084 51.7332 27.4147V17.6076L56.0711 15.7325C58.5963 14.6886 58.5963 11.1071 56.0711 10.0696L34.3505 1.06885C30.9314 -0.356282 26.9998 -0.356282 23.5808 1.06885L1.89156 10.0696C-0.627397 11.1135 -0.633643 14.6886 1.89156 15.7325L11.5548 19.7391V35.2029C11.5548 36.603 12.2486 37.9343 13.4111 38.7532C22.8682 45.4162 35.0941 45.4162 44.5575 38.7532C45.7201 37.9343 46.4138 36.603 46.4138 35.2029V19.7829L50.483 18.1078V27.4211C49.0079 27.7087 47.8827 29.015 47.8827 30.5839C47.8827 31.8653 48.6452 32.9653 49.7328 33.4904C49.5203 34.3155 49.3953 35.153 49.364 36.0343C49.2891 38.4658 49.9954 40.8222 51.733 42.7036C52.7267 43.8412 53.7956 44.41 54.9333 45.0538C56.6271 45.9664 58.7086 45.2975 59.5899 43.6474C60.49 41.9786 59.8586 39.8846 58.1835 38.9845ZM28.8686 13.5075L49.039 17.3515L33.869 23.5771C30.7563 24.8647 27.181 24.8647 24.062 23.5771L2.36641 14.5825C0.878817 13.9637 0.878817 11.8385 2.36641 11.2196L24.0558 2.21889C27.1747 0.92506 30.7563 0.92506 33.8754 2.21889L55.596 11.2196C57.0898 11.8384 57.0898 13.9636 55.596 14.5825L51.1768 16.4889L29.0999 12.2824C28.7624 12.2198 28.4373 12.4386 28.3686 12.7824C28.306 13.1198 28.531 13.4449 28.8686 13.5075ZM49.1328 30.5838C49.1328 29.49 50.0204 28.6024 51.1142 28.6024C52.2018 28.6024 53.0894 29.49 53.0894 30.5838C53.0894 31.7151 52.1331 32.559 51.1142 32.559C50.0579 32.559 49.1328 31.7027 49.1328 30.5838ZM58.4898 43.0599C57.9335 44.0975 56.621 44.5475 55.5083 43.9475C54.5395 43.3974 53.5394 42.8661 52.658 41.8661C51.1455 40.2285 50.5516 38.1971 50.6142 36.0782C50.6454 35.2718 50.7517 34.5342 50.9392 33.7967C51.0017 33.7967 51.1517 33.8029 51.1704 33.8029C51.2705 34.5342 51.458 35.278 51.708 35.9469C52.2768 37.447 53.2457 38.7909 54.7395 39.4034C55.8333 39.9284 56.7771 39.6471 57.596 40.0847C58.6585 40.6596 59.0586 41.9911 58.4898 43.0599Z" fill="#AB0C2F"/>
</svg>
