<svg width="48" height="50" viewBox="0 0 48 50" fill="none" xmlns="http://www.w3.org/2000/svg">
<path d="M23.685 11.5775C22.54 11.5776 21.4208 11.2383 20.4687 10.6023C19.5167 9.96628 18.7746 9.06225 18.3364 8.0045C17.8981 6.94676 17.7834 5.78282 18.0067 4.65986C18.2299 3.53691 18.7812 2.50538 19.5907 1.69574C20.4003 0.886099 21.4317 0.334703 22.5547 0.111284C23.6776 -0.112134 24.8416 0.00246036 25.8993 0.440576C26.9571 0.878691 27.8613 1.62065 28.4974 2.57262C29.1335 3.52459 29.473 4.64381 29.473 5.78875C29.4713 7.32337 28.8609 8.79465 27.7759 9.87986C26.6908 10.9651 25.2196 11.5756 23.685 11.5775ZM23.685 1.44214C22.8251 1.442 21.9845 1.69686 21.2695 2.1745C20.5544 2.65214 19.9971 3.33109 19.668 4.12549C19.3389 4.91989 19.2527 5.79405 19.4204 6.63741C19.5881 7.48078 20.0022 8.25546 20.6102 8.86349C21.2183 9.47152 21.9929 9.88558 22.8363 10.0533C23.6797 10.221 24.5538 10.1349 25.3482 9.80574C26.1426 9.47661 26.8216 8.91929 27.2992 8.20426C27.7769 7.48924 28.0317 6.64863 28.0316 5.78875C28.0302 4.63637 27.5719 3.53157 26.757 2.71671C25.9422 1.90185 24.8374 1.44348 23.685 1.44214Z" fill="#161613"/>
<path d="M15.8171 50C15.408 49.9998 15.0033 49.9156 14.628 49.7528C13.9028 49.4179 13.3374 48.8126 13.0525 48.0663C12.913 47.709 12.8458 47.3275 12.8547 46.944C12.8636 46.5605 12.9485 46.1826 13.1044 45.8321L16.8903 31.8381V21.3597L12.0507 28.1776C12.0322 28.203 12.012 28.2271 11.9902 28.2497C11.7052 28.5688 11.3464 28.8131 10.945 28.9612C10.5437 29.1094 10.1121 29.1568 9.68822 29.0994C9.1836 29.0438 8.70694 28.8393 8.31887 28.512C8.05338 28.2833 7.83581 28.0043 7.67871 27.6911C7.52161 27.3779 7.4281 27.0367 7.40357 26.6872C7.3495 26.0038 7.56908 25.3269 8.01401 24.8054L15.993 13.6344C16.379 13.1604 16.8653 12.7778 17.4169 12.5141C17.9684 12.2504 18.5715 12.1122 19.1829 12.1094H28.1816C28.7838 12.1103 29.3785 12.2434 29.9237 12.4992C30.4688 12.7549 30.9513 13.1272 31.3369 13.5897L39.4009 24.8328C39.8413 25.3598 40.0568 26.0389 40.001 26.7234C39.9452 27.408 39.6225 28.0431 39.1026 28.4918C39.0939 28.499 39.086 28.5063 39.0766 28.5127C38.671 28.8444 38.1777 29.051 37.6568 29.1073C37.2354 29.1617 36.807 29.1104 36.4104 28.958C36.0137 28.8057 35.6611 28.5571 35.3844 28.2345L30.5023 21.359V31.9303L34.2904 45.8401C34.5921 46.5645 34.5967 47.3785 34.3033 48.1063C34.01 48.8342 33.4421 49.4174 32.7224 49.7302C32.0026 50.0429 31.1888 50.0601 30.4565 49.7779C29.7243 49.4957 29.1324 48.9368 28.8087 48.222L24.0858 34.0334H23.2765L18.6099 48.1593C18.3735 48.7042 17.9834 49.1684 17.4875 49.4953C16.9915 49.8222 16.4111 49.9976 15.8171 50ZM17.611 18.3803C17.8021 18.3803 17.9854 18.4562 18.1206 18.5914C18.2558 18.7265 18.3317 18.9098 18.3317 19.101V31.9325C18.3319 31.996 18.3237 32.0593 18.3072 32.1206L14.4802 46.2674C14.4688 46.3084 14.4541 46.3484 14.4363 46.3871C14.3514 46.5684 14.3043 46.7651 14.298 46.9653C14.2917 47.1654 14.3262 47.3647 14.3995 47.551C14.5482 47.942 14.8427 48.26 15.2211 48.4382C15.5993 48.5976 16.0248 48.6029 16.4069 48.453C16.789 48.3032 17.0974 48.01 17.2665 47.6361L22.0707 33.0864C22.1184 32.9424 22.2102 32.8171 22.3331 32.7284C22.456 32.6396 22.6038 32.5919 22.7554 32.592H24.6055C24.7568 32.5919 24.9043 32.6395 25.0271 32.728C25.1498 32.8165 25.2416 32.9414 25.2894 33.0849L30.1513 47.7024C30.3253 48.0618 30.633 48.339 31.0086 48.4746C31.3842 48.6102 31.7979 48.5935 32.1614 48.4281C32.5351 48.256 32.8267 47.9446 32.974 47.5605C33.1213 47.1763 33.1127 46.7498 32.9499 46.3719C32.9347 46.3384 32.9224 46.3037 32.9131 46.2682L29.0861 32.2143C29.0691 32.1528 29.0606 32.0893 29.0609 32.0255V19.0995C29.061 18.9467 29.1096 18.7979 29.1998 18.6746C29.29 18.5512 29.417 18.4597 29.5626 18.4133C29.7082 18.3668 29.8647 18.3678 30.0097 18.4162C30.1546 18.4646 30.2805 18.5577 30.369 18.6823L36.5145 27.3437C36.6379 27.4717 36.7899 27.5685 36.9581 27.6262C37.1263 27.6838 37.3057 27.7006 37.4817 27.6753C37.7294 27.6482 37.9645 27.5518 38.1599 27.3971C38.3904 27.1869 38.5307 26.8957 38.5514 26.5845C38.5721 26.2732 38.4716 25.966 38.2709 25.7272L30.1989 14.4733C29.9503 14.1815 29.6408 13.9477 29.2922 13.7883C28.9436 13.629 28.5642 13.5479 28.1809 13.5508H19.1793C18.7869 13.5495 18.3993 13.6355 18.0443 13.8027C17.6894 13.9698 17.3762 14.2139 17.1274 14.5173L9.16426 25.6703C9.1501 25.69 9.13495 25.709 9.11886 25.7272C9.01715 25.8439 8.93982 25.9798 8.89142 26.1268C8.84302 26.2739 8.82454 26.4291 8.83706 26.5834C8.85811 26.9007 9.00338 27.197 9.24138 27.4079C9.41732 27.5544 9.63277 27.6455 9.86047 27.6695C10.0516 27.6957 10.2463 27.6757 10.4282 27.6114C10.6101 27.5471 10.774 27.4403 10.9062 27.2998L17.0236 18.6823C17.0902 18.5885 17.1783 18.512 17.2805 18.4592C17.3826 18.4064 17.496 18.3789 17.611 18.3788V18.3803Z" fill="#161613"/>
<path d="M41.8582 29.6126C41.8308 29.6126 41.8034 29.6111 41.7761 29.6083C29.7618 28.2389 17.6309 28.2389 5.6166 29.6083C5.42759 29.6282 5.23836 29.5727 5.0901 29.4537C4.94183 29.3348 4.84655 29.1622 4.82497 28.9733C4.8034 28.7845 4.85729 28.5948 4.97491 28.4455C5.09253 28.2962 5.26437 28.1994 5.453 28.1762C17.5758 26.7946 29.8162 26.7946 41.939 28.1762C42.1211 28.1979 42.2881 28.2881 42.406 28.4286C42.5239 28.5691 42.5838 28.7492 42.5735 28.9323C42.5632 29.1154 42.4835 29.2877 42.3506 29.4141C42.2177 29.5405 42.0416 29.6115 41.8582 29.6126Z" fill="#161613"/>
<path d="M2.31925 35.0092C1.91994 34.9922 1.5391 34.8362 1.2425 34.5683C0.945906 34.3004 0.752178 33.9373 0.694771 33.5418C0.187836 30.7592 -0.0427119 27.9332 0.00649323 25.1052C-0.00475472 24.6848 0.140545 24.2752 0.414206 23.9558C0.687868 23.6365 1.07038 23.4302 1.48755 23.3769L3.98121 23.1729C4.40591 23.1525 4.82243 23.2947 5.14603 23.5705C5.46963 23.8463 5.67601 24.235 5.72317 24.6576C6.18817 27.4393 6.41745 30.2553 6.40856 33.0755C6.41926 33.4965 6.27333 33.9065 5.99905 34.226C5.72477 34.5456 5.34165 34.752 4.9239 34.8052L2.43889 35.0092C2.39925 35.0092 2.35961 35.0092 2.31925 35.0092ZM4.09797 24.61L1.60431 24.8133C1.55271 24.8432 1.51076 24.8873 1.48342 24.9403C1.45609 24.9933 1.44452 25.053 1.45008 25.1124C1.40257 27.857 1.62612 30.5996 2.11745 33.3004C2.12168 33.3608 2.14372 33.4187 2.18079 33.4667C2.21785 33.5146 2.26829 33.5506 2.32574 33.5699L4.8057 33.3674C4.85882 33.3385 4.90237 33.2948 4.93104 33.2415C4.95971 33.1883 4.97225 33.1278 4.96714 33.0676C4.97585 30.3182 4.75139 27.573 4.29616 24.8616C4.29169 24.8047 4.27048 24.7505 4.2352 24.7058C4.19992 24.661 4.15217 24.6277 4.09797 24.61Z" fill="#161613"/>
<path d="M45.0521 35.0092C45.0117 35.0092 44.9721 35.0092 44.9324 35.0042L42.4517 34.8016C42.0339 34.7486 41.6506 34.5423 41.3761 34.2227C41.1017 33.9031 40.9557 33.493 40.9664 33.0719C40.9575 30.2514 41.1868 27.4352 41.6518 24.6533C41.7006 24.2315 41.9074 23.8439 42.2307 23.5685C42.5539 23.2931 42.9695 23.1505 43.3937 23.1694L45.8874 23.3733C46.3044 23.4271 46.6866 23.6339 46.9599 23.9535C47.2331 24.273 47.3779 24.6827 47.3663 25.103C47.4151 27.9318 47.1841 30.7585 46.6766 33.5418C46.6191 33.9374 46.4254 34.3005 46.1288 34.5684C45.8322 34.8363 45.4514 34.9922 45.0521 35.0092ZM43.2734 24.6101C43.2199 24.6283 43.173 24.6617 43.1384 24.7063C43.1038 24.7509 43.0831 24.8046 43.0788 24.8609C42.6236 27.5726 42.3991 30.318 42.4078 33.0676C42.4027 33.1279 42.4152 33.1883 42.4439 33.2416C42.4726 33.2948 42.5161 33.3385 42.5692 33.3674L45.0492 33.57C45.1032 33.57 45.2272 33.4763 45.2575 33.3004C45.7488 30.5997 45.9724 27.8571 45.9249 25.1124C45.9304 25.053 45.9188 24.9933 45.8915 24.9403C45.8642 24.8873 45.8222 24.8432 45.7706 24.8133L43.277 24.6101H43.2734Z" fill="#161613"/>
</svg>
