<svg width="50" height="53" viewBox="0 0 50 53" fill="none" xmlns="http://www.w3.org/2000/svg">
<path d="M47.6136 16.3404H46.8549V11.4142C46.8549 11.1117 46.6075 10.8643 46.3051 10.8643H31.0313C28.3373 10.8643 26.017 12.4972 24.9999 14.8229C23.9828 12.4972 21.6625 10.8643 18.9685 10.8643H3.69473C3.39229 10.8643 3.14487 11.1117 3.14487 11.4142V16.3404H2.38616C1.07215 16.3404 0 17.407 0 18.7266V46.2613C0 47.5753 1.07215 48.6474 2.38616 48.6474H20.3541C20.6235 50.9731 22.6083 52.782 25 52.782C27.3917 52.782 29.3765 50.9731 29.6459 48.6474H47.6138C48.9278 48.6474 50 47.5753 50 46.2613V18.7266C49.9998 17.4071 48.9277 16.3404 47.6136 16.3404ZM24.45 43.3857C23.268 41.6153 21.2501 40.4442 18.9685 40.4442H4.24447C4.24447 28.7134 4.24447 25.0651 4.24447 11.9639H18.9685C21.613 11.9639 23.8233 13.8442 24.3401 16.3404C24.3457 16.3955 24.5052 17.9908 24.45 17.44V43.3857ZM45.7553 40.4442H31.0313C28.7496 40.4442 26.7318 41.6153 25.5497 43.3857V17.44C25.5553 17.3847 25.7149 15.7882 25.6597 16.3404C26.1765 13.8444 28.3867 11.9639 31.0313 11.9639H45.7553V40.4442Z" fill="#AB0C2F"/>
<path d="M8.16985 22.0951H20.5256C20.8295 22.0951 21.0754 21.8493 21.0754 21.5453C21.0754 21.2413 20.8296 20.9954 20.5256 20.9954H8.16985C7.86597 20.9954 7.62 21.2413 7.62 21.5453C7.62 21.8493 7.86597 22.0951 8.16985 22.0951Z" fill="#AB0C2F"/>
<path d="M8.16985 26.7546H20.5256C20.8295 26.7546 21.0754 26.5087 21.0754 26.2047C21.0754 25.9008 20.8296 25.6548 20.5256 25.6548H8.16985C7.86597 25.6548 7.62 25.9007 7.62 26.2047C7.62 26.5087 7.86597 26.7546 8.16985 26.7546Z" fill="#AB0C2F"/>
<path d="M8.16985 31.4134H20.5256C20.8295 31.4134 21.0754 31.1676 21.0754 30.8636C21.0754 30.5597 20.8296 30.3137 20.5256 30.3137H8.16985C7.86597 30.3137 7.62 30.5596 7.62 30.8636C7.62 31.1676 7.86597 31.4134 8.16985 31.4134Z" fill="#AB0C2F"/>
<path d="M20.5256 34.9727H8.16985C7.86597 34.9727 7.62 35.2185 7.62 35.5225C7.62 35.8264 7.86586 36.0724 8.16985 36.0724H20.5256C20.8295 36.0724 21.0754 35.8265 21.0754 35.5225C21.0754 35.2186 20.8295 34.9727 20.5256 34.9727Z" fill="#AB0C2F"/>
<path d="M29.4741 22.0951H41.8298C42.1337 22.0951 42.3796 21.8493 42.3796 21.5453C42.3796 21.2413 42.1338 20.9954 41.8298 20.9954H29.4741C29.1702 20.9954 28.9242 21.2413 28.9242 21.5453C28.9242 21.8493 29.1702 22.0951 29.4741 22.0951Z" fill="#AB0C2F"/>
<path d="M29.4741 26.7546H41.8298C42.1337 26.7546 42.3796 26.5087 42.3796 26.2047C42.3796 25.9008 42.1338 25.6548 41.8298 25.6548H29.4741C29.1702 25.6548 28.9242 25.9007 28.9242 26.2047C28.9242 26.5087 29.1702 26.7546 29.4741 26.7546Z" fill="#AB0C2F"/>
<path d="M29.4741 31.4134H41.8298C42.1337 31.4134 42.3796 31.1676 42.3796 30.8636C42.3796 30.5597 42.1338 30.3137 41.8298 30.3137H29.4741C29.1702 30.3137 28.9242 30.5596 28.9242 30.8636C28.9242 31.1676 29.1702 31.4134 29.4741 31.4134Z" fill="#AB0C2F"/>
<path d="M29.4741 36.0724H41.8298C42.1337 36.0724 42.3796 35.8265 42.3796 35.5225C42.3796 35.2186 42.1338 34.9727 41.8298 34.9727H29.4741C29.1702 34.9727 28.9242 35.2185 28.9242 35.5225C28.9242 35.8264 29.1702 36.0724 29.4741 36.0724Z" fill="#AB0C2F"/>
<path d="M25.0014 10.8976C25.3053 10.8976 25.5513 10.6517 25.5513 10.3477V4.04307H27.5149C27.8188 4.04307 28.0647 3.79721 28.0647 3.49321C28.0647 3.18933 27.8189 2.94335 27.5149 2.94335H25.5513V0.549857C25.5513 0.245974 25.3054 0 25.0014 0C24.6975 0 24.4516 0.245863 24.4516 0.549857V2.94346H22.4848C22.1809 2.94346 21.9349 3.18933 21.9349 3.49332C21.9349 3.79721 22.1808 4.04318 22.4848 4.04318H24.4516V10.3478C24.4517 10.6516 24.6976 10.8976 25.0014 10.8976Z" fill="#AB0C2F"/>
</svg>
