<svg width="37" height="34" viewBox="0 0 37 34" fill="none" xmlns="http://www.w3.org/2000/svg">
<path opacity="0.4" d="M18.2134 4.80395V34C17.9038 34 17.5759 33.9454 17.3209 33.7997L17.2481 33.7632C13.7511 31.8508 7.64962 29.8473 3.69732 29.3192L3.16913 29.2463C1.42064 29.0277 0 27.3885 0 25.6401V3.63829C0 1.4709 1.7667 -0.168308 3.93409 0.0138261C7.7589 0.323454 13.5508 2.25407 16.7927 4.27576L17.2481 4.54896C17.5213 4.71288 17.8673 4.80395 18.2134 4.80395Z" fill="white"/>
<path d="M36.4268 3.65649V25.64C36.4268 27.3885 35.0061 29.0277 33.2576 29.2463L32.6566 29.3191C28.6861 29.8473 22.5664 31.869 19.0694 33.7996C18.8326 33.9453 18.5412 34 18.2134 34V4.80393C18.5594 4.80393 18.9055 4.71287 19.1787 4.54895L19.4883 4.3486C22.7303 2.3087 28.5404 0.359869 32.3652 0.0320283H32.4745C34.6418 -0.150106 36.4268 1.47089 36.4268 3.65649Z" fill="white"/>
<path d="M10.4723 11.9802H6.3743C5.62756 11.9802 5.0083 11.3609 5.0083 10.6142C5.0083 9.86742 5.62756 9.24817 6.3743 9.24817H10.4723C11.2191 9.24817 11.8383 9.86742 11.8383 10.6142C11.8383 11.3609 11.2191 11.9802 10.4723 11.9802Z" fill="white"/>
<path d="M11.8383 17.444H6.3743C5.62756 17.444 5.0083 16.8248 5.0083 16.078C5.0083 15.3313 5.62756 14.712 6.3743 14.712H11.8383C12.5851 14.712 13.2043 15.3313 13.2043 16.078C13.2043 16.8248 12.5851 17.444 11.8383 17.444Z" fill="white"/>
</svg>
