<svg width="20" height="24" viewBox="0 0 20 24" fill="none" xmlns="http://www.w3.org/2000/svg">
<path d="M19.5619 14.4481L18.2422 12.1865C17.9502 11.6932 17.6933 10.7429 17.6933 10.1654V7.91579C17.6933 3.54887 14.248 0 10.0202 0C5.78079 0.0120301 2.33551 3.54887 2.33551 7.91579V10.1534C2.33551 10.7308 2.07858 11.6812 1.79828 12.1744L0.478569 14.4361C-0.0236228 15.3143 -0.140412 16.3128 0.174918 17.1789C0.490248 18.0571 1.20266 18.7549 2.13697 19.0677C3.39829 19.5007 4.67129 19.8135 5.96765 20.0421C6.09612 20.0662 6.22458 20.0782 6.35305 20.1023C6.51655 20.1263 6.69174 20.1504 6.86692 20.1744C7.17057 20.2226 7.47422 20.2586 7.78955 20.2827C8.52532 20.3549 9.27277 20.391 10.0202 20.391C10.756 20.391 11.4918 20.3549 12.2159 20.2827C12.4845 20.2586 12.7531 20.2346 13.01 20.1985C13.2202 20.1744 13.4305 20.1504 13.6407 20.1143C13.7691 20.1023 13.8976 20.0782 14.0261 20.0541C15.3341 19.8376 16.6305 19.5007 17.8918 19.0677C18.7911 18.7549 19.4801 18.0571 19.8071 17.1669C20.1341 16.2647 20.0407 15.2782 19.5619 14.4481ZM10.8728 9.56391C10.8728 10.0692 10.4757 10.4782 9.98518 10.4782C9.49467 10.4782 9.09759 10.0692 9.09759 9.56391V5.83459C9.09759 5.32932 9.49467 4.9203 9.98518 4.9203C10.4757 4.9203 10.8728 5.32932 10.8728 5.83459V9.56391Z" fill="#3C66F9"/>
<path d="M13.2978 21.6063C12.8073 23.0018 11.5109 24.0003 9.99267 24.0003C9.07003 24.0003 8.15908 23.6153 7.51674 22.9296C7.14302 22.5687 6.86272 22.0875 6.69922 21.5942C6.85104 21.6183 7.00287 21.6303 7.16637 21.6544C7.43499 21.6905 7.71528 21.7266 7.99557 21.7506C8.66127 21.8108 9.33865 21.8469 10.016 21.8469C10.6817 21.8469 11.3474 21.8108 12.0014 21.7506C12.2467 21.7266 12.4919 21.7145 12.7255 21.6784C12.9124 21.6544 13.0992 21.6303 13.2978 21.6063Z" fill="#3C66F9"/>
</svg>
