<svg width="36" height="36" viewBox="0 0 36 36" fill="none" xmlns="http://www.w3.org/2000/svg">
<path d="M13.9421 28.2879C13.9421 28.6262 14.1798 28.9002 14.4762 28.9002H14.5014C14.7949 28.9002 15.0326 28.629 15.0354 28.2906C15.0411 26.5849 15.0578 22.2645 15.0439 19.6528C15.0383 18.9062 15.2844 18.6097 15.9387 18.6293C17.1915 18.6629 17.2753 18.6377 18.5281 18.6405C19.3669 18.6405 19.4565 18.7412 19.4593 19.6835C19.4593 23.3663 19.4537 34.9599 19.4453 35.0522C20.1919 35.0577 21.5509 35.0158 22.2975 34.9655V34.546C22.2975 30.8381 22.264 23.0867 22.3199 19.3815C22.3339 18.3861 21.4811 17.3318 20.575 17.3542C18.7406 17.3961 17.4627 17.4073 15.6283 17.3486C14.8062 17.3234 13.9337 18.2937 13.9365 19.2641C13.9477 21.9961 13.9449 26.5346 13.9449 28.2879H13.9421Z" fill="#B1040E"/>
<path d="M24.5459 28.9224C24.8395 28.9224 25.08 28.6512 25.08 28.3128C25.0828 25.9499 25.094 17.8797 25.0744 13.3916C25.0716 12.4827 25.3177 12.192 26.0587 12.2227C27.264 12.273 26.6655 12.2339 27.8735 12.2367C28.7991 12.2367 28.8579 12.3066 28.8579 13.3776C28.8579 19.0653 28.8579 27.5634 28.8579 33.2511C28.9613 33.2484 30.3119 33.2428 30.4182 33.24C31.0837 33.2259 31.7157 31.8894 32.3309 32.1102C32.3309 26.2575 32.3309 19.057 32.3309 13.2043C32.3309 11.9654 31.4584 10.9644 30.379 10.9644C28.6816 10.9644 27.5436 10.9644 25.8462 10.9644C24.8115 10.9644 23.9727 11.9319 23.9727 13.1203C23.9727 17.6811 24.0006 25.9276 24.009 28.3156C24.009 28.6539 24.2495 28.9252 24.5431 28.9252L24.5459 28.9224Z" fill="#B1040E"/>
<path d="M4.43183 28.9588H4.48216C4.77858 28.9588 5.01626 28.6876 5.01626 28.3464C5.01626 27.5355 5.01626 26.6799 5.01347 25.9108C5.01347 25.3851 5.17286 25.0439 5.67899 25.0439C7.09674 25.0439 7.31764 25.0775 8.73542 25.0775C9.33941 25.0775 9.36452 25.5109 9.37019 25.7542C9.42329 27.5579 9.40088 32.8066 9.40088 34.7109C10.1447 34.778 11.5261 34.8284 12.2643 34.7892C12.2643 32.9772 12.2643 27.7899 12.2643 26.0451C12.2643 24.2722 11.1346 23.8052 9.72533 23.8052C8.31594 23.8052 7.14986 23.7856 5.92507 23.7856C4.70028 23.7856 3.91451 24.4651 3.90892 25.8158C3.90612 26.6099 3.90612 27.5215 3.90332 28.3521C3.90332 28.6904 4.14101 28.9644 4.43743 28.9644L4.43183 28.9588Z" fill="#B1040E"/>
<path d="M28.1532 9.99693C27.9043 8.52881 27.3646 7.41308 26.3914 6.50427C25.6588 5.81638 24.5459 5.27108 23.1729 4.99984C24.5739 4.67547 25.6588 4.19729 26.6068 3.26892C27.5156 2.37968 27.8036 1.44291 28.2063 0C28.5894 1.46807 28.9082 2.50272 29.831 3.44788C30.7202 4.35948 31.931 4.62793 33.1306 5.0306C30.1078 5.38295 28.5223 8.49246 28.1504 9.99693H28.1532Z" fill="#B1040E"/>
<path d="M17.2589 36.0001C4.91866 36.0001 0.33826 30.5137 0.15091 30.2816C-0.0588152 30.0215 -0.0476301 29.616 0.178873 29.3727C0.405373 29.1323 0.757714 29.1463 0.967441 29.4063C1.03734 29.4902 5.4919 32.9017 17.2589 32.9017C29.0259 32.9017 34.8758 29.7587 34.9317 29.7084C35.175 29.493 35.5273 29.5434 35.7147 29.8258C35.902 30.1054 35.8601 30.5081 35.614 30.7262C35.3707 30.9415 29.546 36.0029 17.2561 36.0029L17.2589 36.0001Z" fill="#B1040E"/>
</svg>
