<svg width="36" height="32" viewBox="0 0 36 32" fill="none" xmlns="http://www.w3.org/2000/svg">
<path d="M21.5534 19.5795C21.9817 19.2446 22.1138 19.4828 22.1299 19.8371C22.1911 21.254 22.3617 23.0252 21.6404 24.0171C20.919 25.0089 20.1429 25.2086 18.9707 25.5886C16.3236 26.4452 11.8731 25.3793 11.5607 26.0942C11.2838 26.7286 11.696 27.2921 13.8472 27.4821C15.2641 27.6078 17.2543 27.7237 19.2959 27.0958C19.4216 27.0571 19.6308 27.1054 19.7049 27.1956C19.779 27.2825 19.7887 27.5272 19.7178 27.611C19.2541 28.1616 16.8389 31.6492 10.0053 31.7394C8.77513 31.7555 8.44024 31.5816 8.28566 30.403C8.11176 29.0923 8.09566 27.7784 8.45956 26.4227C8.81383 25.1056 9.33871 23.9462 10.0439 22.8127C10.4239 22.2008 10.8781 21.866 11.609 21.8852C12.3787 21.9078 17.4958 22.7483 21.5502 19.5827L21.5534 19.5795Z" fill="#B1040E"/>
<path d="M6.66582 30.255C6.73667 30.7927 6.46294 30.7863 6.15057 30.6221C4.89786 29.9554 3.28448 29.2051 2.79821 28.0812C2.31194 26.9574 2.53093 26.1844 2.79821 24.9833C3.40363 22.2685 6.5821 18.9742 6.12481 18.3398C5.71904 17.7794 5.02346 17.847 3.76753 19.6053C2.9399 20.7646 1.82889 22.4167 1.33296 24.497C1.30398 24.6226 1.15263 24.7804 1.03991 24.7997C0.927208 24.819 0.711442 24.7031 0.676018 24.6001C0.437715 23.9206 -1.3399 20.069 2.04788 14.1372C2.65973 13.0681 2.97855 12.8684 4.07346 13.3354C5.29074 13.8507 6.43073 14.5043 7.41615 15.5058C8.37259 16.4784 9.10361 17.5218 9.72191 18.7036C10.0536 19.3413 10.1148 19.9049 9.72839 20.5232C9.31934 21.1768 5.99599 25.1539 6.66582 30.2582V30.255Z" fill="#B1040E"/>
<path d="M4.98485 11.7575C4.48248 11.5482 4.62739 11.3131 4.92689 11.1295C6.13451 10.3824 7.59332 9.36799 8.81059 9.51289C10.0278 9.65779 10.5818 10.2342 11.4867 11.0748C13.5284 12.9651 14.7746 17.3673 15.5507 17.29C16.2399 17.2224 16.5297 16.5847 15.6441 14.6171C15.0613 13.3194 14.1885 11.5256 12.6428 10.0506C12.5494 9.96055 12.4882 9.75121 12.5301 9.64492C12.572 9.53863 12.7781 9.40984 12.8843 9.42919C13.5896 9.56437 17.8146 9.96694 21.2346 15.8827C21.8497 16.9486 21.8626 17.3254 20.9094 18.0371C19.8499 18.8292 18.7131 19.4862 17.3509 19.8309C16.0306 20.1657 14.7618 20.2752 13.4286 20.214C12.7104 20.1819 12.1919 19.9499 11.8538 19.3026C11.4964 18.62 9.72841 13.7476 4.98485 11.7575Z" fill="#B1040E"/>
<path d="M35.9902 12.833C35.9386 11.5224 35.6649 10.1956 35.2946 8.93324C34.8501 7.41962 34.0451 6.05746 32.992 4.85628C30.9117 2.47646 28.4321 0.898495 25.2439 0.30274C23.2312 -0.0740361 21.2314 -0.186752 19.4055 0.495961C15.789 1.85171 13.5445 4.45052 12.6653 5.63881C12.4271 5.96085 12.5269 6.42135 12.8747 6.62102C13.1677 6.78847 13.5348 6.71118 13.7409 6.44712C14.3013 5.73221 15.5121 4.32814 17.1803 3.18815C17.5796 2.91442 18.0851 2.85002 18.5424 3.00137C19.9014 3.449 21.0898 3.99645 22.1267 4.62764C22.3231 4.74679 22.3167 5.03661 22.1106 5.13966C20.9448 5.72254 17.8887 7.21037 16.8518 7.34879C16.5362 7.39064 16.2722 7.65794 16.2689 7.97996C16.2624 8.37929 16.6103 8.68205 16.9967 8.63048C18.4491 8.43725 19.982 7.97357 23.1733 6.05423C23.2602 6.00271 23.3439 5.94796 23.4245 5.89C23.5758 5.78373 23.7819 5.79017 23.9236 5.90933C24.3358 6.25712 24.7158 6.62423 25.0668 7.00102C25.2279 7.17169 25.2053 7.4486 25.0218 7.59674C23.8334 8.55317 22.5646 9.80588 21.2798 11.4515C21.1188 11.6576 21.0768 11.9507 21.2088 12.1761C21.4408 12.5818 21.9818 12.6108 22.2587 12.2694C23.5404 10.7012 24.7802 9.54506 25.9331 8.68844C26.1005 8.56613 26.3388 8.60798 26.4515 8.78186C26.7382 9.22304 26.9894 9.67709 27.2148 10.1344C27.3018 10.3083 27.2534 10.5144 27.1182 10.6529C26.4999 11.2808 25.9943 12.1407 25.6079 13.242C25.1634 14.5076 25.1087 15.5607 25.0572 16.5783C24.9896 17.9211 24.9251 19.1964 23.9526 20.9933C23.7981 21.2767 23.8367 21.6471 24.0879 21.8467C24.4066 22.1011 24.8672 22.0013 25.0572 21.6567C26.1939 19.5796 26.2713 18.0886 26.3421 16.6426C26.3904 15.6733 26.4387 14.7588 26.8219 13.6671C27.0408 13.0424 27.2985 12.5174 27.5948 12.0923C27.7075 11.9281 27.9651 11.9668 28.0263 12.1568C29.0761 15.4737 28.9312 18.8776 28.6027 21.2123C28.4997 21.9369 28.1487 22.6099 27.5883 23.0833C26.3453 24.1332 24.9251 24.8094 23.2602 24.9478C22.9962 24.9704 22.7772 25.1669 22.7127 25.4245V25.4406C22.6033 25.8624 22.9414 26.2586 23.3761 26.2264C24.0653 26.1748 24.7545 26.104 25.4371 26.017C27.8943 25.7111 29.9488 24.5325 31.7329 22.8804C34.6569 20.1753 36.1447 16.8165 35.9902 12.8298V12.833ZM21.2508 1.50714C21.9914 1.40087 22.7031 1.38476 23.3859 1.45561C23.7336 1.49104 23.988 1.79696 23.9752 2.14476C23.9558 2.61815 23.8656 3.17205 23.6241 3.69374C23.5404 3.87407 23.3149 3.93204 23.1475 3.82255C21.8271 2.95628 20.5358 2.36697 19.4828 1.97086C20.0463 1.75833 20.6356 1.59409 21.2539 1.50392L21.2508 1.50714ZM24.6933 4.58577C25.1441 3.89662 25.3792 3.1656 25.4951 2.55697C25.5467 2.28968 25.8397 2.14798 26.0813 2.27358C27.0506 2.78238 27.9297 3.50696 28.7155 4.43441C28.7316 4.45374 28.7477 4.47306 28.7638 4.49238C29.0085 4.78543 28.9022 5.22984 28.5545 5.38763C28.0038 5.6356 27.3983 5.95118 26.7543 6.35373C26.5288 6.49542 26.239 6.44712 26.0587 6.2539C25.6336 5.80305 25.1957 5.39407 24.7512 5.01729C24.6225 4.90781 24.5999 4.72424 24.6933 4.58577ZM30.3965 6.98492C30.7249 7.64507 31.0019 8.33744 31.224 9.05879C31.2981 9.30359 31.1017 9.5483 30.8505 9.50645C30.2225 9.4034 29.5334 9.39692 28.8346 9.60302C28.6317 9.66422 28.416 9.56765 28.3161 9.38081C28.0746 8.93324 27.817 8.50493 27.5432 8.10236C27.4241 7.92524 27.4756 7.68053 27.6624 7.57748C28.4063 7.17169 29.0922 6.89152 29.7041 6.69508C29.9714 6.60813 30.2676 6.7305 30.3965 6.98169V6.98492ZM31.4752 16.6877C31.1951 17.9308 30.7153 19.1062 30.0551 20.185C30.4512 16.5944 30.0486 13.6671 29.1728 11.2873C29.0922 11.0651 29.2436 10.8267 29.4787 10.8204C30.0325 10.801 30.5994 11.0457 31.1146 11.3291C31.5397 11.5642 31.8198 11.9958 31.8488 12.482C31.9294 13.899 31.7844 15.2966 31.4721 16.6845L31.4752 16.6877Z" fill="#B1040E"/>
</svg>
