<svg width="35" height="36" viewBox="0 0 35 36" fill="none" xmlns="http://www.w3.org/2000/svg">
<path d="M34.7339 30.42C34.7339 29.6829 34.7496 28.9693 34.7496 28.2517C34.7496 26.2362 33.9222 25.3501 30.2677 25.3501C31.1892 24.307 31.7263 23.2287 32.0675 22.0798C32.2949 21.3113 32.3224 20.4839 32.4086 19.6761C32.4635 19.1743 32.4283 18.6606 32.491 18.1586C32.6361 16.9548 32.8596 15.755 32.9694 14.5473C33.036 13.7944 32.9968 13.0533 32.7655 12.2848C32.4557 11.2575 31.9498 10.3831 31.2206 9.65371C30.1187 8.55188 28.7541 7.98723 27.17 8.00684C26.2054 8.0186 24.1311 8.01468 23.4685 8.04213C24.084 10.187 23.9625 11.6731 24.2723 13.5121C25.029 17.9744 31.5499 16.1118 31.5499 16.1118C31.5499 16.4294 31.5656 16.6647 31.5499 16.8999C31.4519 18.041 31.3578 19.186 31.2284 20.3232C31.1656 20.8682 31.1068 21.4289 30.9186 21.9386C30.4991 23.0679 29.9266 24.107 29.0051 24.9422C27.868 25.9775 26.6211 26.6793 25.029 26.5303C24.7075 26.4989 24.3977 26.3656 24.084 26.2715C23.9939 26.2441 23.9037 26.2166 23.8174 26.1853C23.5234 26.0794 23.2058 26.2519 23.1195 26.5499V26.5617C23.0293 26.8557 23.1783 27.1655 23.4645 27.2714C24.1899 27.5419 25.6525 27.8517 27.7739 27.2243C28.9306 31.0435 26.1074 31.314 24.9624 31.271C24.7075 31.2631 24.4918 31.4591 24.4723 31.714C24.4526 31.9767 24.6526 32.2002 24.9114 32.2238C25.7584 32.2943 27.5582 32.2395 28.6443 30.7102C28.856 30.4122 28.9345 30.2161 29.2639 30.275C29.809 30.373 30.35 30.4946 30.9108 30.6122C31.095 30.6514 31.2362 30.8122 31.248 31.0003C31.2558 31.1454 31.2636 31.2866 31.2636 31.4239C31.2676 32.412 31.2872 33.404 31.2636 34.3922C31.2284 35.8116 31.346 35.8274 32.7106 35.7959C33.4752 35.7803 33.5772 35.6862 33.5811 34.9058C33.5811 34.3059 33.6085 32.8355 33.6241 32.1022C33.6241 31.8904 33.7928 31.7297 34.0046 31.7023C34.3261 31.6631 34.7417 31.416 34.7417 30.4161L34.7339 30.42Z" fill="#B1040E"/>
<path d="M25.5269 22.4877C25.9111 22.4877 26.2993 22.4719 26.6836 22.4916C27.162 22.519 27.3698 22.8993 27.0836 23.2797C26.6679 23.8286 26.1621 24.205 25.3975 24.2365C24.6014 24.2679 24.2289 23.7306 23.8055 23.2679C23.5388 22.9739 23.8408 22.519 24.2996 22.4916C24.7073 22.468 25.119 22.4877 25.5269 22.4877Z" fill="#B1040E"/>
<path d="M27.3384 19.8292C27.7044 19.8292 28.0011 19.364 28.0011 18.7901C28.0011 18.2163 27.7044 17.751 27.3384 17.751C26.9725 17.751 26.6758 18.2163 26.6758 18.7901C26.6758 19.364 26.9725 19.8292 27.3384 19.8292Z" fill="#B1040E"/>
<path d="M23.9586 19.8292C24.3246 19.8292 24.6212 19.364 24.6212 18.7901C24.6212 18.2163 24.3246 17.751 23.9586 17.751C23.5926 17.751 23.2959 18.2163 23.2959 18.7901C23.2959 19.364 23.5926 19.8292 23.9586 19.8292Z" fill="#B1040E"/>
<path d="M21.8606 25.3385C21.7077 24.9072 21.6841 24.4445 21.79 23.9974C22.5429 20.8958 25.2328 7.75609 18.5394 1.69401C17.2572 0.533349 15.4221 0.274554 13.74 0.0471282C12.0735 -0.172456 5.76433 0.0432065 2.25099 6.84638C1.36482 8.56384 1.16484 10.4068 1.16876 12.3046C1.16876 15.4886 1.47852 21.7114 2.19218 23.8171C2.38039 24.3699 2.36079 24.9699 2.14513 25.5149C1.60792 26.856 0.576663 29.4674 0.0473133 30.9261C-0.133059 31.428 0.266901 31.9612 0.800169 31.9063C2.63919 31.726 3.38812 31.1104 4.14882 30.8398C4.79973 30.6045 5.43496 30.3222 6.10155 30.1615C6.56032 30.0517 7.08967 30.0124 7.53276 30.138C7.7445 30.1968 8.14838 31.1888 8.21501 31.2868C8.87377 32.2514 9.65806 32.9847 10.8422 33.3376C12.6302 33.8709 14.7084 32.9611 15.6103 32.4867C15.8848 32.3417 16.0338 32.0358 15.9789 31.7338C15.8888 31.2084 15.2966 30.9692 14.8575 31.2594C14.3752 31.5809 13.6968 31.9063 12.8185 32.0319C11.3951 32.2358 10.0345 31.4633 9.46199 30.3889C9.1522 29.8085 9.1012 29.2439 9.10511 28.6322C9.10511 27.7304 9.10511 26.8285 9.10511 25.8247C14.0576 27.6598 17.1043 24.9855 17.1043 24.9855C17.1043 24.9855 15.379 31.177 20.3078 35.6824C20.696 36.0392 21.1274 36.1608 21.3901 35.6942C24.1427 30.7928 21.8567 25.3385 21.8567 25.3385H21.8606ZM19.8256 19.4176C18.9982 20.8801 17.1553 23.6563 14.7672 24.4445C13.3674 24.9072 12.0186 25.264 10.4933 24.6993C5.24282 23.2053 4.27038 16.1826 4.07432 13.2927C4.01942 12.485 4.41938 11.7008 5.12518 11.3008C7.28965 10.0735 8.81105 10.8969 10.305 11.1205C17.116 12.1438 18.2435 7.81859 18.2435 7.81859C18.2435 7.81859 17.8092 10.4248 18.1259 13.3631C18.3656 15.587 19.0726 16.6806 19.751 17.7001C20.0961 18.2177 20.1314 18.8765 19.8256 19.4176Z" fill="#B1040E"/>
<path d="M12.3636 19.5431C12.8851 19.5431 13.4066 19.5156 13.9242 19.551C14.5241 19.5902 14.8104 20.0803 14.4692 20.5548C13.9281 21.3037 13.2654 21.8448 12.2264 21.9036C11.1167 21.9664 10.5755 21.2409 9.9913 20.5704C9.66979 20.2018 10.0501 19.5941 10.6069 19.551C11.1912 19.5078 11.7793 19.5431 12.3636 19.5392V19.5431Z" fill="#B1040E"/>
<path d="M9.09328 15.6727C9.52208 15.6727 9.86966 15.1286 9.86966 14.4572C9.86966 13.7859 9.52208 13.2417 9.09328 13.2417C8.66447 13.2417 8.31689 13.7859 8.31689 14.4572C8.31689 15.1286 8.66447 15.6727 9.09328 15.6727Z" fill="#B1040E"/>
<path d="M15.3828 15.6727C15.8116 15.6727 16.1592 15.1286 16.1592 14.4572C16.1592 13.7859 15.8116 13.2417 15.3828 13.2417C14.954 13.2417 14.6064 13.7859 14.6064 14.4572C14.6064 15.1286 14.954 15.6727 15.3828 15.6727Z" fill="#B1040E"/>
</svg>
