<svg width="36" height="30" viewBox="0 0 36 30" fill="none" xmlns="http://www.w3.org/2000/svg">
<path d="M23.5212 14.1407C23.5244 13.7993 23.1896 13.5545 22.8675 13.6673C21.8241 14.0279 19.8469 14.7107 19.1835 14.9651C17.6699 15.5479 16.8938 14.8749 15.8086 14.4949C14.2112 13.9346 12.6301 13.3227 11.0424 12.727C10.5337 12.5338 10.028 12.3277 9.42909 12.0861C9.24549 12.012 9.04263 12.1473 9.04263 12.3438V12.946C9.04263 15.5125 9.04263 18.0759 9.04263 20.6425C9.04263 21.1191 9.11346 21.6956 8.42112 21.702C7.76418 21.7052 7.76096 21.1771 7.76418 20.6747C7.77062 17.8408 7.7513 15.0102 7.78028 12.1763C7.78672 11.5676 7.5452 11.3229 6.9913 11.1297C5.39402 10.5693 3.81929 9.94454 2.24455 9.32948C1.65523 9.09764 0.998283 8.927 0.518452 8.54378C-0.354255 7.84493 -0.0354429 6.81767 0.837264 6.39899C2.22845 5.7324 3.71945 5.27512 5.1686 4.73732C6.71113 4.1641 8.25689 3.60699 9.7962 3.02733C11.6962 2.31242 13.5897 1.5814 15.4833 0.850393C15.9728 0.660394 16.4462 0.431749 16.9292 0.222427C17.6988 -0.109268 18.446 -0.0448637 19.2382 0.267508C21.1961 1.04039 23.1767 1.75208 25.1378 2.51529C27.2085 3.32038 29.2663 4.16733 31.337 4.9724C32.5381 5.43935 33.7554 5.86122 34.963 6.31205C35.5813 6.54389 36.0226 6.92072 35.9967 7.65494C35.9742 8.34731 35.5427 8.69192 34.947 8.91404C33.237 9.55169 29.6752 10.9944 28.6061 11.4323C28.4161 11.5096 28.2937 11.69 28.2873 11.8929C28.2454 13.4934 28.0619 20.3431 27.9911 22.1335C27.9717 22.6455 27.7656 23.1286 27.4146 23.5054C26.3423 24.655 23.6307 26.8835 18.7101 26.8835C15.4576 26.8835 13.3933 26.0333 12.5045 25.5631C12.2114 25.4086 12.0923 25.0511 12.2276 24.7484C12.3628 24.4489 12.7042 24.304 13.0133 24.4135C14.0792 24.7935 16.5267 25.5729 18.6617 25.5729C20.7968 25.5729 22.1783 24.9095 22.8997 24.4812C23.2249 24.2847 23.4246 23.9337 23.4279 23.5537L23.5244 14.1471L23.5212 14.1407ZM1.9837 7.77734L7.7835 9.98963C8.21181 10.1539 8.68519 10.1604 9.1167 10.0057C11.0522 9.31985 16.5975 7.36829 17.7569 7.02053C17.8599 6.98831 17.9855 7.03664 18.1208 7.10747C18.4524 7.28783 18.5942 7.7129 18.4042 8.0414C18.3622 8.11223 18.314 8.16695 18.256 8.18954C16.8874 8.68544 12.205 10.2505 10.7462 10.7368C10.5916 10.7883 10.5851 11.0009 10.7365 11.0621C12.0247 11.6031 15.8375 13.1939 16.8455 13.5835C17.2738 13.7478 17.789 14.0344 18.1658 13.9249C19.3767 13.5739 20.5392 13.0683 21.7179 12.6142C23.5148 11.9186 31.9231 8.69831 34.203 7.82558C34.4027 7.74836 34.4027 7.46495 34.203 7.38764C32.303 6.66305 26.1941 4.32512 23.927 3.44275C22.3265 2.81801 20.7292 2.18039 19.1223 1.57174C18.7165 1.42039 18.227 1.1853 17.8631 1.29157C16.7038 1.62971 15.5831 2.10309 14.456 2.54106C12.3467 3.36224 10.2535 4.21241 8.13774 5.01749C6.47283 5.65189 3.172 6.95933 1.98048 7.43273C1.82268 7.49393 1.8259 7.71614 1.9837 7.77734Z" fill="#B1040E"/>
<path d="M8.36629 29.9134C7.53866 29.9134 6.70782 29.936 5.8802 29.907C4.99461 29.878 4.54377 29.1985 4.85936 28.387C5.73207 26.1424 6.59834 23.8914 7.52579 21.6694C7.66426 21.3345 8.11511 20.9223 8.41781 20.9256C8.72053 20.9287 9.15524 21.3538 9.29375 21.6919C10.2083 23.9011 11.0552 26.1393 11.928 28.3645C12.2661 29.2243 11.8153 29.8909 10.8524 29.9103C10.0247 29.9295 9.19394 29.9134 8.36629 29.9134Z" fill="#B1040E"/>
</svg>
