<svg width="34" height="26" viewBox="0 0 34 26" fill="none" xmlns="http://www.w3.org/2000/svg">
<path d="M33.8856 8.29237C33.4484 5.79434 32.2341 3.41424 30.4717 1.58932C29.6702 0.763556 28.8756 0.260537 28.0985 0.0800583C28.0881 0.0765901 28.0499 0.0661856 28.0395 0.0661856C26.5788 -0.246017 25.5796 0.593548 24.5006 1.59278C24.3583 1.70376 21.6764 4.42041 17.3221 6.23847C17.3187 6.24194 17.3152 6.24194 17.3117 6.24541C17.3117 6.24541 17.3083 6.24541 17.3049 6.24541L11.8855 8.87182C11.882 8.87522 11.8786 8.87875 11.8751 8.87875C11.8751 8.88222 11.8716 8.88222 11.8682 8.88222C7.74643 11.1686 3.93337 11.5988 3.77731 11.637C2.78847 11.7932 1.67132 11.9666 0.904522 12.7299C0.134253 13.4966 -0.146736 14.7074 0.0718262 16.3243C0.411841 18.8362 1.52899 21.2649 3.21866 23.1558C4.05823 24.096 5.15464 24.9252 6.40712 24.842C7.52427 24.7725 8.40905 23.9989 9.18619 23.3188C9.40129 23.1592 12.1109 20.571 16.7046 18.4754C16.7081 18.4754 16.7081 18.4719 16.7081 18.4719C16.7428 18.4546 17.8878 17.9029 17.8878 17.9029C17.7524 20.2276 17.86 22.4202 18.2278 24.9287C18.2486 25.0709 18.3561 25.1854 18.495 25.2166C18.6337 25.2479 18.7794 25.1923 18.8593 25.0744L20.0805 23.2806L22.1414 25.619C22.2281 25.7197 22.3669 25.7613 22.5023 25.7231C22.6306 25.6815 22.7278 25.5704 22.7452 25.4352C23.047 23.1765 23.0817 21.0288 23.0574 18.9437C25.0662 20.5882 25.6005 21.126 28.4871 22.8365C28.605 22.9059 28.7508 22.8989 28.8618 22.8226C28.9729 22.7429 29.0284 22.6075 29.0041 22.4757L28.4455 19.4086L30.607 19.5613C30.7492 19.5717 30.8846 19.4918 30.947 19.3635C31.006 19.2351 30.9817 19.079 30.8846 18.9749C29.1463 17.136 27.4914 15.6927 25.5901 14.3604C27.0959 13.8192 28.6364 13.3959 30.1977 13.101L30.3157 13.0802C31.8006 12.8026 33.1086 12.4869 33.7088 11.0852L33.7123 11.0818C33.7227 11.061 33.7296 11.0367 33.7366 11.0159C34.0244 10.2977 34.0799 9.38877 33.8856 8.29237ZM8.73166 22.7983C7.99961 23.4333 7.24328 24.0924 6.36203 24.1515C5.5224 24.207 4.64462 23.7143 3.73562 22.6942C2.13959 20.904 1.08147 18.6072 0.758725 16.2306C0.571377 14.8393 0.786537 13.8262 1.39367 13.2224C2.0008 12.6187 2.95842 12.4695 3.88128 12.3239C4.07904 12.2753 7.70121 11.8728 11.7744 9.71478C12.3851 13.2433 13.7833 16.0501 15.9447 18.0694C11.6427 20.1164 9.24862 22.4063 8.73166 22.7983ZM16.0974 15.4049C16.028 15.4708 15.9205 15.4743 15.8511 15.4049C14.5361 14.0865 13.7451 12.265 13.6827 10.4019C13.6792 10.3082 13.7521 10.2284 13.8492 10.2249C13.9464 10.2145 14.0262 10.2943 14.0296 10.3915C14.0887 12.1645 14.8415 13.9027 16.0975 15.1586C16.1634 15.2278 16.1634 15.3389 16.0974 15.4049ZM16.7602 16.0814C16.6977 16.1543 16.5867 16.1647 16.5138 16.1022L16.2571 15.8837C16.1842 15.8212 16.1738 15.7102 16.2363 15.6374C16.2987 15.5645 16.4097 15.5575 16.4826 15.62L16.7393 15.8386C16.8122 15.901 16.8191 16.0085 16.7602 16.0814ZM30.0033 3.80975C30.4126 4.19832 30.7492 4.69793 30.9782 5.24957C31.1552 5.67976 31.4223 6.17598 31.4917 6.6964C31.5541 7.17861 31.4119 7.78581 30.947 8.0564C30.3051 8.42762 29.6702 7.97663 29.2226 7.38684C28.8202 6.85948 28.5009 6.26275 28.272 5.61387C28.1575 5.29119 28.0327 4.86101 28.0916 4.41688C28.161 3.88258 28.5079 3.45579 28.9382 3.37949C29.2781 3.31713 29.6389 3.4628 30.0033 3.80975ZM26.8876 2.96671C26.957 2.43935 27.2172 2.00563 27.5954 1.76973C28.0603 1.48527 28.6743 1.56157 28.9901 1.9432C29.0526 2.0161 29.0422 2.12708 28.9693 2.18958C28.8965 2.24854 28.7855 2.23813 28.723 2.1653C28.5217 1.92246 28.0881 1.87731 27.7793 2.06812C27.4914 2.2416 27.2866 2.59549 27.2311 3.0118C27.1374 3.71958 27.4393 4.43088 27.7065 5.05536C27.7446 5.14553 27.703 5.24617 27.6162 5.28432C27.526 5.32247 27.4254 5.28085 27.3872 5.19408C27.1166 4.55914 26.78 3.76813 26.8876 2.96671ZM22.1483 24.5817L20.306 22.4861C20.2332 22.4063 20.1326 22.3612 20.025 22.3716C19.9174 22.3786 19.8203 22.4341 19.7578 22.5208L18.7932 23.9364C18.5122 21.7056 18.4567 19.6967 18.6024 17.556C19.3726 17.1813 21.718 16.0467 22.3044 15.7587C22.3113 16.2098 22.3182 16.6609 22.3286 17.1188C22.3807 19.5163 22.4328 21.9865 22.1483 24.5817ZM30.1871 12.3968L30.0691 12.4211C27.3179 12.9381 24.629 13.8435 22.065 15.103C19.841 13.1219 18.422 10.322 17.8426 6.76577C22.169 4.90262 24.8337 2.21032 24.9724 2.10281C25.1944 1.89458 25.42 1.68642 25.6524 1.49567C25.4096 2.22766 25.5032 2.98752 25.6351 3.64674C26.1798 6.34258 27.5121 8.79198 29.4793 10.7314C29.9754 11.2172 30.5895 11.748 31.3841 11.9944C31.4673 12.0186 31.5471 12.036 31.6304 12.0499C31.1794 12.2094 30.6797 12.3066 30.1871 12.3968Z" fill="#AB0C2F"/>
<path d="M30.6001 7.45623C30.3225 7.61237 29.9687 7.22033 29.7744 6.96702C29.4171 6.49515 29.1291 5.96431 28.9244 5.38493C28.8376 5.13169 28.7405 4.80548 28.7787 4.50715C28.8065 4.28859 28.9383 4.0839 29.0632 4.05955C29.2089 4.03528 29.4171 4.20875 29.5246 4.3128C29.8646 4.63547 30.1457 5.05185 30.3364 5.51672C30.5099 5.93657 30.7493 6.3841 30.8048 6.78661C30.8396 7.0746 30.7528 7.36606 30.6001 7.45623Z" fill="#AB0C2F"/>
<path d="M8.63834 12.4579C7.71401 12.7413 6.70077 12.7248 5.72147 12.8565C4.44652 13.0283 3.52765 13.472 2.99062 14.1754C2.44578 14.8894 2.27737 15.9114 2.52915 16.9794C2.74905 17.9141 3.23152 18.7459 3.69806 19.5502C3.74641 19.6334 3.85286 19.661 3.93523 19.6133C4.01793 19.5652 4.04634 19.4589 3.99826 19.3761C3.54426 18.5936 3.07499 17.7845 2.86663 16.8998C2.63893 15.9335 2.78466 15.0172 3.2664 14.3858C3.74548 13.7581 4.58711 13.3593 5.76756 13.2004C6.75432 13.0679 7.77003 13.0872 8.73999 12.7896C8.83149 12.7614 8.88298 12.6644 8.85484 12.5729C8.82709 12.4811 8.73018 12.4301 8.63834 12.4579Z" fill="#AB0C2F"/>
<path d="M4.36165 19.923C4.28169 19.8697 4.17397 19.8911 4.12108 19.9706C4.06753 20.0502 4.08887 20.1579 4.1685 20.2113L4.37753 20.3516C4.45763 20.4048 4.56528 20.3834 4.6181 20.3039C4.67166 20.2243 4.65031 20.1166 4.57068 20.0632L4.36165 19.923Z" fill="#AB0C2F"/>
<path d="M19.6736 17.7042C19.5777 17.7042 19.5001 17.7818 19.5001 17.8777L19.5005 21.294C19.5005 21.3899 19.578 21.4675 19.6739 21.4675C19.7698 21.4675 19.8474 21.3899 19.8474 21.294L19.8471 17.8777C19.8471 17.7819 19.7695 17.7042 19.6736 17.7042Z" fill="#AB0C2F"/>
<path d="M7.28313 13.7029C6.56988 13.7468 5.8323 13.7922 5.14346 14.0688C4.35232 14.3858 3.7848 14.9833 3.6252 15.6669C3.43205 16.4941 3.82882 17.3145 4.25167 18.084C4.29763 18.1668 4.40161 18.1992 4.48751 18.1524C4.57121 18.1063 4.60203 18.0008 4.55594 17.9169C4.14903 17.1769 3.79768 16.4541 3.96335 15.7458C4.09687 15.1723 4.58642 14.6658 5.27252 14.3906C5.90953 14.135 6.61864 14.0913 7.30407 14.0491C7.39998 14.0432 7.47248 13.961 7.46667 13.8653C7.46067 13.77 7.38137 13.6962 7.28313 13.7029Z" fill="#AB0C2F"/>
</svg>
