<svg width="34" height="25" viewBox="0 0 34 25" fill="none" xmlns="http://www.w3.org/2000/svg">
<path d="M33.3677 8.43275C33.8708 8.28356 33.9888 8.00604 33.9992 7.79789C34.0096 7.5966 33.9263 7.31561 33.458 7.10746L19.7397 0.997669C18.8862 0.616107 18.0153 0.133769 17.0369 0.0262566C15.9615 -0.0917268 14.9275 0.206667 13.97 0.546677C9.15084 1.83042 6.32671 3.22161 1.65333 4.93207C0.466695 5.36579 -0.126557 6.05615 0.0226396 6.82294C0.151027 7.48562 0.789365 7.8291 1.32719 8.05459C3.53726 8.98092 5.86525 9.67481 8.09606 10.4035C6.63891 12.4435 5.85478 14.709 5.65703 17.502C5.64662 17.6581 5.74026 17.8004 5.88599 17.8524L16.3152 21.5855H16.3222C16.3568 21.5994 16.395 21.6063 16.4331 21.6063C16.4713 21.6063 16.5094 21.5994 16.5442 21.5855H16.5511L26.9803 17.8524C27.1295 17.8004 27.2232 17.6581 27.2093 17.502C27.022 14.8791 26.623 12.9986 25.1172 10.8857L30.6475 9.24123C30.6093 11.6386 30.5851 11.4964 30.5434 14.0083C29.7177 14.1089 29.0377 14.5565 28.6908 15.2468C28.5243 15.573 28.4445 15.9442 28.4445 16.3155C28.4445 16.7942 28.5763 17.28 28.84 17.6964C29.0898 18.0919 29.4541 18.4111 29.867 18.6296C29.2806 20.3435 28.9614 21.9048 28.3717 23.5597C28.1878 24.0662 28.4098 24.434 28.9927 24.4791L32.7258 24.7635C33.3156 24.8087 33.7979 24.2779 33.6834 23.6881C33.2984 21.6932 32.8785 20.1041 32.3338 18.581C32.587 18.4353 32.816 18.2479 32.9999 18.019C33.6105 17.2765 33.7251 16.1662 33.2775 15.3127C32.9027 14.5946 32.1291 14.095 31.2374 14.0012C31.2825 11.3957 31.3034 11.6004 31.3449 9.03301L33.3677 8.43275ZM20.1456 9.73377C20.2323 9.70256 20.3329 9.74765 20.3641 9.83782C20.3988 9.93152 20.3503 10.0286 20.26 10.0599L17.5712 11.0105C17.481 11.0417 17.3839 10.9932 17.3492 10.9029C17.3179 10.8127 17.3665 10.7156 17.4567 10.6809L20.1456 9.73377ZM15.8886 6.33373C16.5096 6.01106 17.2764 6.25737 17.8072 6.69802C18.272 7.08658 18.2235 7.607 17.7065 7.85678C17.2902 8.05806 16.3778 8.05806 15.8886 7.80822C15.1669 7.437 15.2641 6.65987 15.8886 6.33373ZM4.50527 7.10046C3.68299 6.79513 3.67252 6.21922 4.0889 5.85486C4.26237 5.7022 4.47746 5.62937 4.66481 5.56L9.87942 3.70382C9.97313 3.6726 10.0702 3.71769 10.1014 3.80793C10.1327 3.89817 10.0876 3.99874 9.9974 4.02995L4.77932 5.88614C4.61279 5.94857 4.44278 6.00759 4.31793 6.11511C4.22769 6.19487 4.14792 6.3372 4.17914 6.45858C4.22422 6.60778 4.41857 6.69802 4.62666 6.77438L8.92535 8.35986C9.01559 8.39461 9.06061 8.49518 9.02939 8.58542C8.99471 8.67566 8.89407 8.72068 8.8039 8.686L4.50527 7.10046ZM9.80312 9.07109C9.74756 9.14739 9.64005 9.1648 9.56369 9.10584L9.35206 8.94971C9.27229 8.89415 9.25836 8.78317 9.31385 8.7068C9.37287 8.6305 9.48038 8.61316 9.55675 8.67219L9.76837 8.82832C9.84474 8.88375 9.86208 8.99479 9.80312 9.07109ZM26.4982 17.2903L16.4333 20.8916L6.36833 17.2903C6.59389 14.6743 7.37102 12.544 8.78309 10.6324C9.91063 11.0071 11.0382 11.406 12.1311 11.8605C13.512 12.4365 14.8789 13.0991 16.3882 13.1303C17.4706 13.1512 18.4525 12.8632 19.4934 12.5544L24.4096 11.0938C25.8841 13.0888 26.3074 14.8513 26.4982 17.2903ZM26.1131 6.11857C26.0749 6.20881 25.9742 6.24696 25.8875 6.20881L21.11 4.12366C21.0233 4.08551 20.9852 3.98493 21.0233 3.8947C21.0615 3.80799 21.1621 3.76978 21.2523 3.80799L26.0263 5.89314C26.1131 5.93123 26.1513 6.03187 26.1131 6.11857ZM33.0034 23.8198C33.0278 23.9551 32.9202 24.08 32.7779 24.0696L29.0448 23.7851H29.0275C29.6277 22.0955 29.933 20.5863 30.5159 18.8689C30.9079 18.9592 31.2826 18.9521 31.692 18.8446C32.2158 20.3226 32.6253 21.8735 33.0034 23.8198Z" fill="#AB0C2F"/>
<path d="M13.2974 18.0077L7.73878 16.2969C8.12842 14.9648 8.70646 13.6985 9.45858 12.5301C9.5104 12.4496 9.48706 12.3422 9.40643 12.2904C9.32579 12.2387 9.21841 12.2618 9.16652 12.3424C8.36558 13.5872 7.75706 14.941 7.35829 16.3658C7.33288 16.4565 7.38437 16.5506 7.47414 16.5785L13.195 18.3395C13.2869 18.3674 13.384 18.3162 13.4119 18.2246C13.4404 18.1331 13.3889 18.0361 13.2974 18.0077Z" fill="#AB0C2F"/>
<path d="M14.2497 18.2648L14.0034 18.2297C13.9096 18.2143 13.8205 18.2814 13.8069 18.3765C13.7934 18.4713 13.8591 18.5593 13.954 18.573L14.201 18.6084C14.2947 18.622 14.3837 18.5564 14.3971 18.461C14.4107 18.3661 14.3446 18.2784 14.2497 18.2648Z" fill="#AB0C2F"/>
<path d="M19.7936 13.8085C21.0848 13.536 22.3629 13.1543 23.5918 12.6742C23.6812 12.6393 23.7253 12.5387 23.6904 12.4494C23.6555 12.3603 23.5552 12.316 23.4657 12.3509C22.2545 12.8243 20.9947 13.2003 19.7218 13.469C19.6283 13.4888 19.5683 13.5808 19.5879 13.6745C19.6077 13.7677 19.6989 13.8283 19.7936 13.8085Z" fill="#AB0C2F"/>
</svg>
