<svg width="25" height="26" viewBox="0 0 25 26" fill="none" xmlns="http://www.w3.org/2000/svg">
<path d="M19.3741 11.4486C19.3994 11.7776 19.2855 12.1192 19.0324 12.3723L11.4148 19.9899C9.73185 21.6729 8.03624 21.6729 6.34062 19.9899L1.26644 14.9157C0.405978 14.0426 -0.0242526 13.1695 0.00105503 12.2964H0.0896315L19.2222 11.4613L19.3741 11.4486Z" fill="#71CA4A"/>
<path opacity="0.4" d="M19.0321 10.6767L9.73153 1.3761L8.63065 0.275221C8.26369 -0.0917403 7.6563 -0.0917403 7.28934 0.275221C6.92238 0.642182 6.92238 1.24956 7.28934 1.61652L8.39023 2.7174L1.26612 9.84152C0.45627 10.6514 0.0260401 11.4739 0.000732422 12.2964H0.0893089L19.2219 11.4612L19.3738 11.4486C19.3611 11.1702 19.2346 10.8792 19.0321 10.6767Z" fill="#71CA4A"/>
<path d="M17.7171 26H1.26715C0.748345 26 0.318115 25.5698 0.318115 25.051C0.318115 24.5322 0.748345 24.1019 1.26715 24.1019H17.7171C18.2359 24.1019 18.6662 24.5322 18.6662 25.051C18.6662 25.5698 18.2359 26 17.7171 26Z" fill="#71CA4A"/>
<path d="M21.955 15.9149C21.626 15.5606 21.0186 15.5606 20.6896 15.9149C20.2973 16.3451 18.3486 18.5468 18.3486 20.2045C18.3486 21.8495 19.6773 23.1782 21.3223 23.1782C22.9673 23.1782 24.2959 21.8495 24.2959 20.2045C24.2959 18.5468 22.3472 16.3451 21.955 15.9149Z" fill="#71CA4A"/>
</svg>
