<svg width="24" height="24" viewBox="0 0 24 24" fill="none" xmlns="http://www.w3.org/2000/svg">
<path d="M23.602 5.93944C22.834 3.33538 20.6619 1.16333 18.0579 0.395308C16.0778 -0.180706 14.7098 -0.132704 13.7618 0.575313C12.6217 1.42733 12.4897 2.96337 12.4897 4.0554V7.04347C12.4897 9.99554 13.8338 11.4956 16.4738 11.4956H19.9179C20.998 11.4956 22.546 11.3636 23.398 10.2235C24.13 9.28753 24.19 7.91949 23.602 5.93944Z" fill="#2EA1FC"/>
<path opacity="0.4" d="M20.2894 13.6317C19.9774 13.2717 19.5214 13.0677 19.0534 13.0677H14.7573C12.6453 13.0677 10.9292 11.3516 10.9292 9.23959V4.94349C10.9292 4.47548 10.7252 4.01947 10.3652 3.70746C10.0172 3.39545 9.53718 3.25145 9.08117 3.31145C6.2611 3.67146 3.66904 5.21949 1.977 7.54755C0.272955 9.88761 -0.35106 12.7437 0.188953 15.5997C0.968972 19.7278 4.26905 23.0279 8.40915 23.808C9.06917 23.94 9.72918 24 10.3892 24C12.5613 24 14.6613 23.3279 16.4493 22.0199C18.7774 20.3279 20.3254 17.7358 20.6855 14.9157C20.7455 14.4477 20.6014 13.9797 20.2894 13.6317Z" fill="#2EA1FC"/>
</svg>
