<svg width="24" height="22" viewBox="0 0 24 22" fill="none" xmlns="http://www.w3.org/2000/svg">
<path opacity="0.4" d="M23.2922 7.75311V18.0906C23.5506 19.8997 22.2584 21.7087 20.3202 21.9671H3.9094C2.10034 22.2256 0.291285 20.9334 0.0328482 18.9951V7.75311C-0.225589 5.94405 1.0666 4.13499 3.00487 3.87656H6.49378L7.3983 1.29219C7.65674 0.516874 8.43205 0 9.20737 0H14.1177C14.893 0 15.6683 0.516874 15.9267 1.29219L16.8313 3.87656H19.4156C21.2247 3.61812 23.0337 4.9103 23.2922 6.84858V7.75311Z" fill="#FF6AA5"/>
<path d="M11.6622 9.04546C13.8589 9.04546 15.5388 10.7253 15.5388 12.922C15.5388 15.1187 13.8589 16.7986 11.6622 16.7986C9.46549 16.7986 7.78564 15.1187 7.78564 12.922C7.78564 10.7253 9.46549 9.04546 11.6622 9.04546ZM18.7692 7.10718C19.5445 7.10718 20.0614 7.62405 20.0614 8.39936C20.0614 9.17467 19.5445 9.69155 18.7692 9.69155C17.9939 9.69155 17.477 9.17467 17.477 8.39936C17.477 7.62405 17.9939 7.10718 18.7692 7.10718Z" fill="#FF6AA5"/>
</svg>
