<svg width="26" height="24" viewBox="0 0 26 24" fill="none" xmlns="http://www.w3.org/2000/svg">
<path opacity="0.4" d="M24.8505 10.0272L23.6126 15.307C22.5516 19.8668 20.4549 21.7109 16.514 21.332C15.8825 21.2814 15.2004 21.1678 14.4678 20.9909L12.3458 20.4857C7.07863 19.2352 5.44923 16.6332 6.68707 11.3535L7.92491 6.06105C8.17753 4.98742 8.48067 4.05272 8.85961 3.28223C10.3374 0.225518 12.851 -0.595498 17.0698 0.402353L19.1792 0.894963C24.4716 2.1328 26.0883 4.74743 24.8505 10.0272Z" fill="#FF8F34"/>
<path d="M16.5138 21.332C15.7307 21.8625 14.7455 22.3046 13.5455 22.6961L11.5498 23.3529C6.53531 24.9697 3.89543 23.6182 2.26602 18.6037L0.649251 13.6144C-0.96752 8.59989 0.371368 5.94737 5.38589 4.3306L7.38159 3.67379C7.89946 3.50959 8.39207 3.37064 8.85942 3.28223C8.48049 4.05272 8.17734 4.98742 7.92472 6.06105L6.68688 11.3535C5.44904 16.6332 7.07845 19.2352 12.3456 20.4857L14.4676 20.9909C15.2002 21.1678 15.8823 21.2814 16.5138 21.332Z" fill="#FF8F34"/>
<path d="M19.5831 10.1156C19.5073 10.1156 19.4315 10.103 19.3431 10.0904L13.2171 8.53677C12.7118 8.41046 12.4087 7.89258 12.535 7.38734C12.6613 6.8821 13.1792 6.57896 13.6844 6.70527L19.8105 8.25888C20.3157 8.38519 20.6188 8.90307 20.4925 9.40831C20.3915 9.82513 19.9999 10.1156 19.5831 10.1156Z" fill="#FF8F34"/>
<path d="M15.8824 14.3849C15.8066 14.3849 15.7309 14.3723 15.6424 14.3596L11.9668 13.4249C11.4616 13.2986 11.1584 12.7808 11.2847 12.2755C11.411 11.7703 11.9289 11.4671 12.4342 11.5935L16.1098 12.5281C16.615 12.6545 16.9182 13.1723 16.7919 13.6776C16.6908 14.107 16.3119 14.3849 15.8824 14.3849Z" fill="#FF8F34"/>
</svg>
