<svg width="22" height="26" viewBox="0 0 22 26" fill="none" xmlns="http://www.w3.org/2000/svg">
<path opacity="0.4" d="M11.3102 0.273C10.8422 -0.091 10.1922 -0.091 9.72421 0.273C7.25421 2.158 -0.0388442 8.307 0.000155813 15.47C0.000155813 21.268 4.7192 26 10.5302 26C16.3412 26 21.0602 21.281 21.0602 15.483C21.0732 8.424 13.7672 2.171 11.3102 0.273Z" fill="#B14AF7"/>
<path d="M21.0338 15.86C21.0078 16.653 20.8908 17.433 20.6828 18.187L11.4917 22.659V25.961C11.1667 25.987 10.8417 26 10.5167 26C10.1917 26 9.86675 25.987 9.54175 25.961V0.403C9.60675 0.351 9.65875 0.312 9.71075 0.273C10.1918 -0.091 10.8417 -0.091 11.3097 0.273C11.3617 0.312 11.4267 0.364 11.4917 0.416V7.488L16.4058 5.096C16.8348 5.59 17.2377 6.097 17.6407 6.63C17.5887 6.682 17.5367 6.721 17.4717 6.747L11.4917 9.659V13.988L19.6687 10.01C19.6817 10.01 19.6817 9.997 19.6947 9.997C19.9807 10.582 20.2277 11.18 20.4227 11.804L11.4917 16.159V20.488L20.0977 16.302L21.0338 15.86Z" fill="#B14AF7"/>
</svg>
