<svg width="24" height="24" viewBox="0 0 24 24" fill="none" xmlns="http://www.w3.org/2000/svg">
<path d="M16.8002 7.2002H7.2002V16.8002H16.8002V7.2002Z" fill="#974FF8"/>
<path opacity="0.4" d="M3.6 23.9998C5.58 23.9998 7.2 22.3798 7.2 20.3998V16.7998H3.6C1.62 16.7998 0 18.4198 0 20.3998C0 22.3798 1.62 23.9998 3.6 23.9998Z" fill="#974FF8"/>
<path opacity="0.4" d="M3.6 7.2H7.2V3.6C7.2 1.62 5.58 0 3.6 0C1.62 0 0 1.62 0 3.6C0 5.58 1.62 7.2 3.6 7.2Z" fill="#974FF8"/>
<path opacity="0.4" d="M16.7998 7.2H20.3998C22.3798 7.2 23.9998 5.58 23.9998 3.6C23.9998 1.62 22.3798 0 20.3998 0C18.4198 0 16.7998 1.62 16.7998 3.6V7.2Z" fill="#974FF8"/>
<path opacity="0.4" d="M20.3998 23.9998C22.3798 23.9998 23.9998 22.3798 23.9998 20.3998C23.9998 18.4198 22.3798 16.7998 20.3998 16.7998H16.7998V20.3998C16.7998 22.3798 18.4198 23.9998 20.3998 23.9998Z" fill="#974FF8"/>
</svg>
