<svg width="24" height="24" viewBox="0 0 24 24" fill="none" xmlns="http://www.w3.org/2000/svg">
<path opacity="0.4" d="M0.902046 19.9182C0.410089 19.9182 0.00212545 19.5103 0.00212545 19.0183V12.1789C-0.0578692 8.92721 1.15402 5.85548 3.40982 3.55169C5.66562 1.25989 8.68935 0 11.9411 0C18.5885 0 24 5.41152 24 12.0589V18.8983C24 19.3903 23.592 19.7982 23.1001 19.7982C22.6081 19.7982 22.2002 19.3903 22.2002 18.8983V12.0589C22.2002 6.40743 17.6046 1.79984 11.9411 1.79984C9.16931 1.79984 6.60154 2.86775 4.69371 4.81157C2.77388 6.7674 1.75397 9.37117 1.80197 12.1549V19.0063C1.80197 19.5103 1.406 19.9182 0.902046 19.9182Z" fill="#687AF6"/>
<path d="M4.72929 12.4788H4.5733C2.05353 12.4788 0.00170898 14.5306 0.00170898 17.0504V19.3062C0.00170898 21.8259 2.05353 23.8777 4.5733 23.8777H4.72929C7.24907 23.8777 9.30088 21.8259 9.30088 19.3062V17.0504C9.30088 14.5306 7.24907 12.4788 4.72929 12.4788Z" fill="#687AF6"/>
<path d="M19.4283 12.4788H19.2723C16.7525 12.4788 14.7007 14.5306 14.7007 17.0504V19.3062C14.7007 21.8259 16.7525 23.8777 19.2723 23.8777H19.4283C21.948 23.8777 23.9999 21.8259 23.9999 19.3062V17.0504C23.9999 14.5306 21.948 12.4788 19.4283 12.4788Z" fill="#687AF6"/>
</svg>
