<svg width="70" height="70" viewBox="0 0 70 70" fill="none" xmlns="http://www.w3.org/2000/svg">
<circle cx="35" cy="35" r="34.25" stroke="white" stroke-opacity="0.3" stroke-width="1.5"/>
<path d="M40 25H30C27.2386 25 25 27.2386 25 30V40C25 42.7614 27.2386 45 30 45H40C42.7614 45 45 42.7614 45 40V30C45 27.2386 42.7614 25 40 25Z" stroke="white" stroke-width="2" stroke-linecap="round" stroke-linejoin="round"/>
<path d="M39 34.3698C39.1234 35.2021 38.9812 36.052 38.5937 36.7988C38.2062 37.5456 37.5931 38.1512 36.8416 38.5295C36.0901 38.9077 35.2384 39.0394 34.4077 38.9057C33.5771 38.7721 32.8097 38.3799 32.2148 37.785C31.6199 37.1901 31.2277 36.4227 31.094 35.592C30.9604 34.7614 31.092 33.9097 31.4703 33.1582C31.8485 32.4067 32.4541 31.7936 33.2009 31.4061C33.9477 31.0186 34.7977 30.8764 35.63 30.9998C36.4789 31.1257 37.2648 31.5213 37.8716 32.1281C38.4785 32.735 38.8741 33.5209 39 34.3698Z" stroke="white" stroke-width="2" stroke-linecap="round" stroke-linejoin="round"/>
<path d="M40.5 29.5H40.51" stroke="white" stroke-width="2" stroke-linecap="round" stroke-linejoin="round"/>
</svg>
