<svg width="27" height="28" viewBox="0 0 27 28" fill="none" xmlns="http://www.w3.org/2000/svg">
<path d="M20.8642 12.3286C20.8914 12.6829 20.7688 13.0508 20.4962 13.3234L12.2927 21.5269C10.4803 23.3393 8.65431 23.3393 6.82829 21.5269L1.36384 16.0624C0.437202 15.1221 -0.0261179 14.1819 0.00113617 13.2416H0.0965251L20.7006 12.3423L20.8642 12.3286Z" fill="white"/>
<path opacity="0.4" d="M20.4966 11.4979L10.4807 1.48194L9.29511 0.296388C8.89993 -0.0987961 8.24583 -0.0987961 7.85065 0.296388C7.45546 0.691573 7.45546 1.34567 7.85065 1.74085L9.0362 2.9264L1.36417 10.5984C0.492039 11.4706 0.028719 12.3563 0.00146484 13.2421H0.0968538L20.701 12.3427L20.8645 12.3291C20.8509 12.0293 20.7146 11.7159 20.4966 11.4979Z" fill="white"/>
<path d="M19.079 28.0001H1.36383C0.805117 28.0001 0.341797 27.5368 0.341797 26.9781C0.341797 26.4194 0.805117 25.9561 1.36383 25.9561H19.079C19.6377 25.9561 20.101 26.4194 20.101 26.9781C20.101 27.5368 19.6377 28.0001 19.079 28.0001Z" fill="white"/>
<path d="M23.6445 17.1397C23.2901 16.7581 22.636 16.7581 22.2817 17.1397C21.8593 17.603 19.7607 19.974 19.7607 21.7592C19.7607 23.5307 21.1916 24.9616 22.9631 24.9616C24.7346 24.9616 26.1655 23.5307 26.1655 21.7592C26.1655 19.974 24.0669 17.603 23.6445 17.1397Z" fill="white"/>
</svg>
