<svg width="24" height="24" viewBox="0 0 24 24" fill="none" xmlns="http://www.w3.org/2000/svg">
<path d="M16.8003 7.2002H7.2002V16.8003H16.8003V7.2002Z" fill="white"/>
<path opacity="0.4" d="M3.60006 24.0004C5.58009 24.0004 7.20011 22.3804 7.20011 20.4003V16.8003H3.60006C1.62003 16.8003 0 18.4203 0 20.4003C0 22.3804 1.62003 24.0004 3.60006 24.0004Z" fill="white"/>
<path opacity="0.4" d="M3.60006 7.20011H7.20011V3.60006C7.20011 1.62003 5.58009 0 3.60006 0C1.62003 0 0 1.62003 0 3.60006C0 5.58009 1.62003 7.20011 3.60006 7.20011Z" fill="white"/>
<path opacity="0.4" d="M16.8003 7.20011H20.4003C22.3804 7.20011 24.0004 5.58009 24.0004 3.60006C24.0004 1.62003 22.3804 0 20.4003 0C18.4203 0 16.8003 1.62003 16.8003 3.60006V7.20011Z" fill="white"/>
<path opacity="0.4" d="M20.4003 24.0004C22.3804 24.0004 24.0004 22.3804 24.0004 20.4003C24.0004 18.4203 22.3804 16.8003 20.4003 16.8003H16.8003V20.4003C16.8003 22.3804 18.4203 24.0004 20.4003 24.0004Z" fill="white"/>
</svg>
