<svg width="24" height="24" viewBox="0 0 24 24" fill="none" xmlns="http://www.w3.org/2000/svg">
<path d="M20.454 3.47313L13.4238 0.341915C12.392 -0.113972 10.8324 -0.113972 9.80069 0.341915L2.77045 3.47313C0.994891 4.26493 0.730957 5.34466 0.730957 5.92052C0.730957 6.49638 0.994891 7.57611 2.77045 8.36791L9.80069 11.4991C10.3166 11.7271 10.9644 11.847 11.6122 11.847C12.2601 11.847 12.9079 11.7271 13.4238 11.4991L20.454 8.36791C22.2296 7.57611 22.4935 6.49638 22.4935 5.92052C22.4935 5.34466 22.2416 4.26493 20.454 3.47313Z" fill="white"/>
<path opacity="0.4" d="M11.6131 18.0493C11.1572 18.0493 10.7013 17.9533 10.2814 17.7734L2.19545 14.1743C0.95976 13.6224 0 12.1468 0 10.7911C0 10.2992 0.395901 9.90332 0.887778 9.90332C1.37966 9.90332 1.77556 10.2992 1.77556 10.7911C1.77556 11.4389 2.31542 12.2787 2.91527 12.5427L11.0013 16.1418C11.3852 16.3097 11.829 16.3097 12.2129 16.1418L20.2989 12.5427C20.8988 12.2787 21.4386 11.4509 21.4386 10.7911C21.4386 10.2992 21.8345 9.90332 22.3264 9.90332C22.8183 9.90332 23.2142 10.2992 23.2142 10.7911C23.2142 12.1348 22.2544 13.6224 21.0187 14.1743L12.9328 17.7734C12.5249 17.9533 12.069 18.0493 11.6131 18.0493Z" fill="white"/>
<path opacity="0.4" d="M11.6131 24C11.1572 24 10.7013 23.904 10.2814 23.724L2.19545 20.1249C0.863784 19.5371 0 18.2054 0 16.7418C0 16.2499 0.395901 15.854 0.887778 15.854C1.37966 15.854 1.77556 16.2499 1.77556 16.7418C1.77556 17.4976 2.21945 18.1814 2.91527 18.4933L11.0013 22.0924C11.3852 22.2604 11.829 22.2604 12.2129 22.0924L20.2989 18.4933C20.9828 18.1934 21.4386 17.4976 21.4386 16.7418C21.4386 16.2499 21.8345 15.854 22.3264 15.854C22.8183 15.854 23.2142 16.2499 23.2142 16.7418C23.2142 18.2054 22.3504 19.5251 21.0187 20.1249L12.9328 23.724C12.5249 23.904 12.069 24 11.6131 24Z" fill="white"/>
</svg>
