<svg width="25" height="24" viewBox="0 0 25 24" fill="none" xmlns="http://www.w3.org/2000/svg">
<path d="M22.6069 13.5174L21.5282 12.4622L12.4409 21.5377L13.5314 22.6281C14.446 23.5427 15.3957 24 16.3338 24C17.2718 24 18.2216 23.5427 19.1362 22.6281L22.6069 19.1574C24.4712 17.2813 24.4712 15.3935 22.6069 13.5174Z" fill="white"/>
<path d="M10.4708 1.38067C8.62994 -0.460224 6.69524 -0.460224 4.85434 1.38067L1.37188 4.85141C-0.457293 6.69231 -0.457293 8.62701 1.37188 10.4679L2.45062 11.5466L11.5379 2.45941L10.4708 1.38067Z" fill="white"/>
<path opacity="0.4" d="M23.5101 2.56601C21.9741 6.40024 18.4682 11.407 15.1264 14.6784C14.6457 11.6532 12.2303 9.2847 9.18164 8.86258C12.4648 5.5091 17.5067 1.95629 21.3527 0.408526C22.0327 0.150566 22.7128 0.349899 23.1349 0.772016C23.5805 1.21758 23.7916 1.88593 23.5101 2.56601Z" fill="white"/>
<path d="M15.1257 14.6789C14.5395 15.2534 13.9532 15.7811 13.3904 16.2266L11.0805 18.0792C10.7873 18.2903 10.4942 18.4662 10.1659 18.6069C10.1659 18.3841 10.1424 18.1613 10.119 17.9268C9.98999 16.9536 9.54443 16.0273 8.75882 15.2417C7.94976 14.4444 6.98828 13.9871 5.99161 13.8581C5.7571 13.8346 5.51087 13.8229 5.28809 13.8346C5.41707 13.4711 5.6164 13.1311 5.86263 12.8497L7.6918 10.5398C8.12565 9.98868 8.62984 9.42586 9.18094 8.86304C12.2296 9.28515 14.645 11.6537 15.1257 14.6789Z" fill="white"/>
<path opacity="0.4" d="M10.1657 18.6067C10.1657 19.8965 9.67321 21.1277 8.73517 22.054C8.01992 22.781 7.05843 23.2734 5.88588 23.4141L3.01314 23.7307C1.44193 23.9066 0.0935045 22.5582 0.269386 20.9752L0.585974 18.0908C0.867385 15.5229 3.01314 13.8813 5.28788 13.8344C5.51067 13.8227 5.7569 13.8344 5.99141 13.8579C6.98807 13.9869 7.94956 14.4442 8.75862 15.2415C9.54422 16.0271 9.98979 16.9534 10.1188 17.9266C10.1422 18.1611 10.1657 18.3839 10.1657 18.6067Z" fill="white"/>
</svg>
