<svg width="24" height="24" viewBox="0 0 24 24" fill="none" xmlns="http://www.w3.org/2000/svg">
<path opacity="0.4" d="M17.0245 0H6.97549C2.6053 0 0 2.6053 0 6.97549V17.0245C0 21.3947 2.6053 24 6.97549 24H17.0245C21.3947 24 24 21.3947 24 17.0245V6.97549C24 2.6053 21.3947 0 17.0245 0Z" fill="white"/>
<path d="M17.9971 16.7725C16.4243 16.7725 14.9236 16.0521 13.723 14.7194C14.9115 13.1947 15.6799 11.3097 15.848 9.2447H17.9851C18.4773 9.2447 18.8855 8.83649 18.8855 8.34425C18.8855 7.852 18.4773 7.4438 17.9851 7.4438H15.0676C15.0436 7.4438 15.0196 7.43178 14.9956 7.43178C14.9716 7.43178 14.9476 7.4438 14.9236 7.4438H12.8945V6.32721C12.8945 5.83496 12.4863 5.42676 11.9941 5.42676C11.5018 5.42676 11.0936 5.83496 11.0936 6.32721V7.4438H6.0031C5.51085 7.4438 5.10265 7.852 5.10265 8.34425C5.10265 8.83649 5.51085 9.2447 6.0031 9.2447H11.9941H14.0351C13.5909 13.4708 10.1572 16.7725 5.97906 16.7725C5.48682 16.7725 5.07861 17.1807 5.07861 17.6729C5.07861 18.1651 5.48682 18.5734 5.97906 18.5734C8.46431 18.5734 10.7334 17.6129 12.4743 16.0401C13.9991 17.6729 15.932 18.5734 17.9851 18.5734C18.4773 18.5734 18.8855 18.1651 18.8855 17.6729C18.8855 17.1807 18.4893 16.7725 17.9971 16.7725Z" fill="white"/>
</svg>
