<svg width="22" height="22" viewBox="0 0 22 22" fill="none" xmlns="http://www.w3.org/2000/svg">
<path opacity="0.4" d="M6.2155 20.8002C6.1825 20.8002 6.1385 20.8222 6.1055 20.8222C3.9715 19.7662 2.2335 18.0172 1.1665 15.8832C1.1665 15.8502 1.1885 15.8062 1.1885 15.7732C2.5305 16.1692 3.9165 16.4662 5.2915 16.6972C5.5335 18.0832 5.8195 19.4582 6.2155 20.8002Z" fill="white"/>
<path opacity="0.4" d="M20.8337 15.8942C19.7447 18.0832 17.9297 19.8542 15.7188 20.9212C16.1368 19.5242 16.4887 18.1162 16.7197 16.6972C18.1057 16.4662 19.4697 16.1692 20.8117 15.7732C20.8007 15.8172 20.8337 15.8612 20.8337 15.8942Z" fill="white"/>
<path opacity="0.4" d="M20.9217 6.28039C19.5357 5.86239 18.1387 5.52139 16.7197 5.27939C16.4887 3.86039 16.1477 2.45239 15.7188 1.07739C17.9957 2.16639 19.8327 4.00339 20.9217 6.28039Z" fill="white"/>
<path opacity="0.4" d="M6.21464 1.19975C5.81864 2.54175 5.53264 3.90575 5.30164 5.29175C3.88264 5.51175 2.47464 5.86375 1.07764 6.28175C2.14464 4.07075 3.91564 2.25575 6.10464 1.16675C6.13764 1.16675 6.18164 1.19975 6.21464 1.19975Z" fill="white"/>
<path d="M14.8391 5.049C12.2871 4.763 9.71313 4.763 7.16113 5.049C7.43613 3.542 7.78813 2.035 8.28313 0.583C8.30513 0.495 8.29413 0.429 8.30513 0.341C9.17413 0.132 10.0651 0 11.0001 0C11.9241 0 12.8261 0.132 13.6841 0.341C13.6951 0.429 13.6951 0.495 13.7171 0.583C14.2121 2.046 14.5641 3.542 14.8391 5.049Z" fill="white"/>
<path d="M5.049 14.8394C3.531 14.5644 2.035 14.2124 0.583 13.7174C0.495 13.6954 0.429 13.7064 0.341 13.6954C0.132 12.8264 0 11.9354 0 11.0004C0 10.0764 0.132 9.17438 0.341 8.31638C0.429 8.30538 0.495 8.30538 0.583 8.28338C2.046 7.79938 3.531 7.43638 5.049 7.16138C4.774 9.71338 4.774 12.2874 5.049 14.8394Z" fill="white"/>
<path d="M22.0002 11.0004C22.0002 11.9354 21.8682 12.8264 21.6592 13.6954C21.5712 13.7064 21.5052 13.6954 21.4172 13.7174C19.9542 14.2014 18.4582 14.5644 16.9512 14.8394C17.2372 12.2874 17.2372 9.71338 16.9512 7.16138C18.4582 7.43638 19.9652 7.78838 21.4172 8.28338C21.5052 8.30538 21.5712 8.31638 21.6592 8.31638C21.8682 9.18538 22.0002 10.0764 22.0002 11.0004Z" fill="white"/>
<path d="M14.8391 16.9512C14.5641 18.4692 14.2121 19.9652 13.7171 21.4172C13.6951 21.5052 13.6951 21.5712 13.6841 21.6592C12.8261 21.8682 11.9241 22.0002 11.0001 22.0002C10.0651 22.0002 9.17413 21.8682 8.30513 21.6592C8.29413 21.5712 8.30513 21.5052 8.28313 21.4172C7.79913 19.9542 7.43613 18.4692 7.16113 16.9512C8.43713 17.0942 9.71313 17.1932 11.0001 17.1932C12.2871 17.1932 13.5741 17.0942 14.8391 16.9512Z" fill="white"/>
<path d="M15.1393 15.139C12.3881 15.4861 9.61115 15.4861 6.85995 15.139C6.51283 12.3878 6.51283 9.61091 6.85995 6.8597C9.61115 6.51259 12.3881 6.51259 15.1393 6.8597C15.4864 9.61091 15.4864 12.3878 15.1393 15.139Z" fill="white"/>
</svg>
